<svg width="620" height="794" viewBox="0 0 620 794" fill="none" xmlns="http://www.w3.org/2000/svg">
<path d="M100.779 213.518L100.912 547.085C100.912 547.883 100.292 548.503 99.5389 548.503H97.1911C96.438 548.503 95.8178 547.883 95.8178 547.085L95.6406 213.518H100.779Z" fill="url(#paint0_linear_29_11388)"/>
<path d="M145.167 233.009L151.767 224.017L158.324 233.009H145.167Z" fill="url(#paint1_linear_29_11388)"/>
<path d="M145.167 250.463L151.767 241.515L158.324 250.463H145.167Z" fill="url(#paint2_linear_29_11388)"/>
<path d="M145.167 267.961L151.767 259.012L158.324 267.961H145.167Z" fill="url(#paint3_linear_29_11388)"/>
<path d="M145.167 285.459L151.767 276.51L158.324 285.459H145.167Z" fill="url(#paint4_linear_29_11388)"/>
<path d="M145.167 302.957L151.767 294.008L158.324 302.957H145.167Z" fill="url(#paint5_linear_29_11388)"/>
<path d="M613.799 704.344L613.666 413.171C613.666 412.773 614.02 412.418 614.419 412.418C614.862 412.418 615.216 412.773 615.216 413.171L615.349 704.344H613.799Z" fill="url(#paint6_linear_29_11388)"/>
<path d="M494.725 66.7571L495.035 399.881C495.035 400.634 493.75 401.254 492.2 401.254H487.726C486.175 401.254 484.891 400.634 484.891 399.881L484.536 66.7571H494.725Z" fill="url(#paint7_linear_29_11388)"/>
<path d="M158.413 390.092C157.97 390.092 157.615 389.738 157.615 389.339L157.482 52.8926C157.482 52.4939 157.837 52.1395 158.235 52.1395C158.678 52.1395 158.989 52.4939 158.989 52.8926L159.166 389.339C159.166 389.738 158.811 390.092 158.413 390.092Z" fill="url(#paint8_linear_29_11388)"/>
<g opacity="0.1">
<path opacity="0.1" d="M469.386 97.3679H377.865V0H469.386V97.3679Z" fill="url(#paint9_linear_29_11388)"/>
<path opacity="0.1" d="M469.386 236.022H377.865V138.654H469.386V236.022Z" fill="url(#paint10_linear_29_11388)"/>
<path opacity="0.1" d="M469.386 374.72H377.865V277.352H469.386V374.72Z" fill="url(#paint11_linear_29_11388)"/>
<path opacity="0.1" d="M469.386 513.374H377.865V416.006H469.386V513.374Z" fill="url(#paint12_linear_29_11388)"/>
</g>
<g opacity="0.1">
<path opacity="0.1" d="M224.727 206.076H108.443V82.3065H224.727V206.076Z" fill="url(#paint13_linear_29_11388)"/>
<path opacity="0.1" d="M224.727 382.295H108.443V258.57H224.727V382.295Z" fill="url(#paint14_linear_29_11388)"/>
</g>
<path d="M296.356 212.587C338.999 212.587 373.568 177.264 373.568 133.692C373.568 90.119 338.999 54.7963 296.356 54.7963C253.713 54.7963 219.144 90.119 219.144 133.692C219.144 177.264 253.713 212.587 296.356 212.587Z" fill="#FCFCFC"/>
<path d="M272.878 226.807C272.554 226.748 272.273 226.601 272.037 226.364C271.239 225.7 271.151 224.46 271.859 223.662C272.701 222.688 273.233 222.156 273.277 222.112C274.03 221.359 275.27 221.403 276.024 222.156C276.777 222.953 276.732 224.149 275.979 224.903C275.935 224.903 275.492 225.39 274.739 226.187C274.252 226.763 273.543 226.985 272.878 226.807Z" fill="#352D57"/>
<path d="M279.434 265.214H279.301C278.238 264.949 277.618 263.885 277.884 262.867C278.105 261.803 279.168 261.183 280.187 261.449H280.32C281.339 261.715 282.402 261.892 283.51 262.025C284.573 262.158 285.326 263.088 285.193 264.151C285.104 265.214 284.13 266.012 283.067 265.879C281.826 265.702 280.586 265.524 279.434 265.214ZM274.561 263.575C274.443 263.546 274.31 263.501 274.163 263.442C272.967 262.867 271.815 262.202 270.752 261.449C269.91 260.829 269.689 259.588 270.353 258.747C270.973 257.861 272.169 257.684 273.055 258.304C273.897 258.88 274.827 259.456 275.846 259.943C276.776 260.386 277.219 261.538 276.776 262.512C276.378 263.354 275.447 263.752 274.561 263.575ZM267.872 258.259C267.429 258.171 267.031 257.905 266.765 257.551C265.968 256.488 265.259 255.336 264.727 254.14C264.24 253.165 264.683 252.013 265.657 251.526C266.632 251.083 267.784 251.526 268.227 252.501C268.67 253.475 269.246 254.361 269.866 255.203C270.486 256.045 270.353 257.285 269.467 257.905C269.024 258.259 268.404 258.392 267.872 258.259ZM264.506 250.419C263.797 250.241 263.177 249.666 263.044 248.868C262.822 247.584 262.689 246.255 262.689 244.97C262.689 243.863 263.575 243.021 264.639 243.021C265.702 243.021 266.588 243.863 266.588 244.926C266.588 246.033 266.676 247.141 266.854 248.159C267.031 249.223 266.366 250.241 265.303 250.419C265.037 250.478 264.771 250.478 264.506 250.419ZM264.771 241.869C263.708 241.603 263.088 240.584 263.31 239.521L263.354 239.344C263.62 238.192 263.974 236.996 264.417 235.845C264.771 234.826 265.879 234.338 266.898 234.693C267.917 235.091 268.404 236.199 268.05 237.173C267.651 238.192 267.385 239.211 267.119 240.186L267.075 240.407C266.854 241.426 265.835 242.091 264.771 241.869ZM267.917 233.851C267.739 233.822 267.562 233.762 267.385 233.674C266.455 233.142 266.1 231.946 266.632 231.016C267.252 229.953 267.917 228.845 268.625 227.827C269.246 226.941 270.442 226.719 271.328 227.295C272.214 227.915 272.435 229.111 271.815 229.997C271.195 230.972 270.575 231.946 270.043 232.921C269.6 233.674 268.714 234.028 267.917 233.851Z" fill="#352D57"/>
<path d="M287.896 266.056C287.054 265.834 286.434 265.126 286.389 264.195C286.345 263.132 287.187 262.246 288.25 262.202C289.357 262.202 290.022 262.113 290.022 262.113C291.085 261.98 292.06 262.734 292.192 263.797C292.325 264.86 291.572 265.834 290.509 265.967C290.465 265.967 289.667 266.056 288.383 266.1C288.206 266.1 288.043 266.085 287.896 266.056Z" fill="#352D57"/>
<path d="M304.861 300.299L304.374 296.666C316.778 295.027 324.751 290.642 327.985 283.554C331.972 274.916 327.764 264.461 324.928 260.164C318.195 249.798 318.461 240.939 319.878 235.313C321.429 229.2 324.574 225.567 324.707 225.39L327.453 227.826L326.08 226.63L327.453 227.826C327.01 228.358 316.645 240.629 328.029 258.171C331.44 263.398 336.003 275.004 331.352 285.104C327.498 293.388 318.594 298.482 304.861 300.299Z" fill="#352D57"/>
<path d="M157.746 314.651C157.613 314.297 154.734 306.678 154.38 297.685C153.937 285.37 158.588 276.643 167.802 272.346C185.211 264.284 201.114 273.631 207.095 277.131C207.981 277.618 208.955 278.194 209.265 278.327C209.265 278.327 208.911 278.194 208.424 278.371L209.575 281.826C208.512 282.181 207.626 281.693 205.234 280.276C199.165 276.732 184.99 268.448 169.352 275.669C150.393 284.484 161.069 313.012 161.157 313.322L157.746 314.651Z" fill="white"/>
<path d="M423.094 315.316L419.639 314.031C419.772 313.721 430.403 285.148 411.488 276.377C395.806 269.112 381.631 277.441 375.606 280.984C373.214 282.402 372.328 282.889 371.221 282.535L372.417 279.035C371.929 278.902 371.575 278.991 371.575 278.991C371.885 278.902 372.86 278.326 373.746 277.839C379.726 274.295 395.629 264.993 413.038 273.055C422.252 277.308 426.859 286.079 426.417 298.349C426.106 307.342 423.227 315.006 423.094 315.316Z" fill="white"/>
<path d="M235.8 584.428C200.317 581.903 180.471 574.284 175.111 561.172C169.086 546.287 183.395 527.372 196.507 512.532C211.923 495.123 211.79 471.202 208.955 454.235C205.854 435.586 198.944 420.923 198.855 420.746L202.177 419.195C202.487 419.771 209.354 434.39 212.587 453.527C216.84 479.087 212.233 500.306 199.254 514.968C186.806 529.011 173.25 546.775 178.522 559.798C183.218 571.316 202.576 578.359 236.066 580.796L235.8 584.428Z" fill="url(#paint15_linear_29_11388)"/>
<path d="M342.027 588.061L341.806 584.384C375.295 582.346 394.742 575.48 399.526 564.007C404.975 551.027 391.553 533.131 379.282 518.955C366.436 504.204 362.05 482.896 366.613 457.381C369.979 438.288 377.067 423.758 377.333 423.138L380.655 424.777C380.567 424.91 373.479 439.528 370.201 458.134C367.189 475.1 366.79 499.021 382.029 516.563C395.052 531.536 409.139 550.584 402.937 565.424C397.444 578.448 377.554 585.89 342.027 588.061Z" fill="url(#paint16_linear_29_11388)"/>
<path d="M198.855 374.985C223.125 374.985 242.799 355.311 242.799 331.041C242.799 306.771 223.125 287.097 198.855 287.097C174.586 287.097 154.911 306.771 154.911 331.041C154.911 355.311 174.586 374.985 198.855 374.985Z" fill="#352D57"/>
<path d="M374.454 374.985C398.723 374.985 418.398 355.311 418.398 331.041C418.398 306.771 398.723 287.097 374.454 287.097C350.184 287.097 330.51 306.771 330.51 331.041C330.51 355.311 350.184 374.985 374.454 374.985Z" fill="#352D57"/>
<path d="M237.527 629.125C256.855 629.125 272.523 613.457 272.523 594.129C272.523 574.801 256.855 559.133 237.527 559.133C218.199 559.133 202.531 574.801 202.531 594.129C202.531 613.457 218.199 629.125 237.527 629.125Z" fill="#352D57"/>
<path d="M345.438 629.125C364.766 629.125 380.434 613.457 380.434 594.129C380.434 574.801 364.766 559.133 345.438 559.133C326.111 559.133 310.442 574.801 310.442 594.129C310.442 613.457 326.111 629.125 345.438 629.125Z" fill="#352D57"/>
<path d="M350.133 551.824H226.674L216.175 406.038H360.632L350.133 551.824Z" fill="#382F5C"/>
<path d="M334.807 502.254C325.46 502.254 318.195 497.558 311.151 492.996C304.551 488.743 298.305 484.712 290.774 484.712C283.199 484.712 276.466 488.211 269.289 491.933C261.67 495.875 253.829 499.995 244.482 499.995C237.616 499.995 230.307 496.362 222.688 489.275L222.998 488.92C230.528 495.964 237.749 499.508 244.482 499.508C253.696 499.508 261.537 495.476 269.112 491.534C276.289 487.768 283.11 484.225 290.774 484.225C298.438 484.225 304.728 488.3 311.373 492.597C318.372 497.115 325.593 501.767 334.807 501.767C340.344 501.767 346.59 499.729 353.323 495.654L353.589 496.052C346.767 500.128 340.433 502.254 334.807 502.254Z" fill="#6B5BB0"/>
<path d="M334.807 519.309C325.46 519.309 318.195 514.613 311.152 510.095C304.551 505.798 298.305 501.767 290.774 501.767C283.199 501.767 276.466 505.311 269.29 509.032C261.67 512.974 253.829 517.05 244.482 517.05C238.059 517.05 231.149 513.86 224.017 507.526L224.327 507.171C231.37 513.417 238.148 516.607 244.482 516.607C253.697 516.607 261.537 512.531 269.112 508.589C276.289 504.868 283.111 501.324 290.774 501.324C298.438 501.324 304.728 505.399 311.373 509.696C318.372 514.215 325.593 518.866 334.807 518.866C339.99 518.866 345.793 517.05 352.039 513.462L352.26 513.86C345.926 517.493 340.078 519.309 334.807 519.309Z" fill="#6B5BB0"/>
<path d="M334.806 538.18C325.459 538.18 318.194 533.485 311.151 528.966C304.55 524.669 298.304 520.682 290.773 520.682C283.198 520.682 276.465 524.182 269.289 527.903C261.669 531.846 253.829 535.965 244.482 535.965C238.501 535.965 232.078 533.174 225.478 527.637L225.743 527.283C232.3 532.732 238.59 535.478 244.482 535.478C253.696 535.478 261.536 531.403 269.111 527.504C276.288 523.739 283.11 520.195 290.773 520.195C298.437 520.195 304.727 524.271 311.372 528.567C318.371 533.086 325.592 537.737 334.806 537.737C339.59 537.737 344.906 536.187 350.62 533.13L350.842 533.529C345.083 536.63 339.679 538.18 334.806 538.18Z" fill="#6B5BB0"/>
<path d="M394.122 368.252C384.731 419.594 369.67 485.687 349.957 485.687C321.739 485.687 320.986 454.634 288.205 454.634C255.38 454.634 254.804 485.687 226.63 485.687C207.892 485.687 193.584 431.82 183.838 380.079C185.743 371.84 185.211 312.037 184.945 286.92C187.072 284.794 189.375 282.756 191.944 280.851C200.804 274.25 212.1 269.289 224.902 265.834C262.202 255.689 311.949 258.126 349.602 269.643C364.974 274.339 378.263 280.497 387.965 287.983C388.26 288.219 388.555 288.456 388.851 288.692C388.231 292.546 390.313 359.348 394.122 368.252Z" fill="url(#paint17_linear_29_11388)"/>
<path d="M394.122 368.252C384.731 419.594 369.67 485.687 349.957 485.687C321.739 485.687 320.986 454.634 288.205 454.634C255.38 454.634 254.804 485.687 226.63 485.687C207.892 485.687 193.584 431.82 183.838 380.079C185.743 371.84 185.211 312.037 184.945 286.92C187.072 284.794 189.375 282.756 191.944 280.851C192.166 302.469 193.362 355.449 199.032 370.245C206.253 388.983 205.544 439.395 250.197 424.998C294.85 410.601 300.608 415.607 323.644 430.004C345.173 443.47 386.149 371.485 387.965 287.983C388.26 288.219 388.555 288.456 388.851 288.692C388.231 292.546 390.313 359.348 394.122 368.252Z" fill="url(#paint18_linear_29_11388)"/>
<path d="M349.602 269.643C349.513 271.548 348.893 273.453 347.786 275.225C341.008 286.477 316.378 294.805 287.053 294.805C254.848 294.805 228.357 284.794 224.858 271.947C224.592 270.972 224.459 269.998 224.459 269.023C224.459 267.931 224.607 266.867 224.902 265.834C262.201 255.689 311.948 258.126 349.602 269.643Z" fill="url(#paint19_linear_29_11388)"/>
<path d="M347.785 275.225C341.008 286.477 316.378 294.805 287.052 294.805C254.847 294.805 228.357 284.793 224.857 271.947C244.172 259.72 319.523 253.784 347.785 275.225Z" fill="#352D57"/>
<path d="M224.902 409.361C220.915 409.361 217.031 408.785 213.251 407.633C194.247 401.963 184.502 383.579 184.413 383.358L185.21 382.959C185.299 383.136 194.868 401.21 213.517 406.792C225.256 410.335 238.103 408.253 251.658 400.634C283.863 382.56 297.507 389.205 314.783 397.622C318.814 399.615 323.023 401.653 327.763 403.513C350.399 412.417 375.516 402.938 389.249 390.313L389.869 390.977C379.725 400.235 363.511 407.855 346.545 407.855C340.166 407.899 333.699 406.792 327.408 404.311C322.668 402.45 318.46 400.413 314.385 398.419C297.33 390.135 283.863 383.579 252.057 401.387C242.665 406.703 233.54 409.361 224.902 409.361Z" fill="#BCB3FF"/>
<path d="M246.342 315.094H326.39C331.129 315.094 334.452 318.859 333.832 323.422L329.978 352.437C329.49 356.203 325.725 359.171 321.561 359.171H251.171C247.051 359.171 243.286 356.203 242.799 352.437L238.945 323.422C238.324 318.859 241.647 315.094 246.342 315.094Z" fill="#F2F5FF"/>
<path d="M378.972 558.646L320.055 629.834C320.055 640.997 259.588 640.997 259.588 629.834L200.405 558.026L206.075 536.054H372.859L376.048 547.793L378.972 558.646Z" fill="white"/>
<path d="M378.972 558.646L320.055 629.834C320.055 640.997 259.588 640.997 259.588 629.834L200.405 558.026L206.075 536.054H207.847C216.53 561.614 238.28 607.419 283.332 607.02C329.579 606.621 362.227 567.905 376.048 547.793L378.972 558.646Z" fill="url(#paint20_linear_29_11388)"/>
<path d="M254.892 793.117H176.44C145.195 677.499 146.893 605.44 181.534 576.941C185.964 573.309 191.103 570.607 196.994 569.056L254.892 637.409C266.41 698.895 264.239 748.996 254.892 793.117Z" fill="white"/>
<path d="M254.891 793.117H226.407C231.989 762.64 239.475 708.641 232.211 665.715C223.927 616.854 194.646 587.75 181.533 576.941C185.963 573.309 191.102 570.607 196.993 569.056L254.891 637.409C266.409 698.895 264.238 748.996 254.891 793.117Z" fill="url(#paint21_linear_29_11388)"/>
<path d="M409.095 793.117H327.896C319.7 748.376 317.973 697.965 327.896 637.409L385.749 569.056C395.539 571.626 403.159 577.251 409.05 585.137C435.57 620.575 435.585 689.902 409.095 793.117Z" fill="white"/>
<path d="M358.683 665.715C342.558 699.648 350.886 766.406 355.892 793.117H327.896C319.7 748.376 317.973 697.965 327.896 637.409L385.749 569.056C395.539 571.626 403.159 577.251 409.05 585.137C397.533 600.597 373.744 634.042 358.683 665.715Z" fill="url(#paint22_linear_29_11388)"/>
<path d="M130.369 456.936C135.153 466.859 130.945 478.731 121.022 483.515C111.099 488.255 99.2273 484.047 94.443 474.124C89.7031 464.201 93.9115 452.329 103.834 447.589C113.713 442.805 125.629 447.013 130.369 456.936Z" fill="#352D57"/>
<path d="M171.877 377.82L136.571 464.733C123.37 467.258 98.164 456.892 93.0254 450.425C93.1435 448.978 93.2912 447.28 93.4684 445.33C96.7908 411.354 114.909 305.303 163.017 283.021C164.7 282.224 166.428 281.545 168.2 280.983L171.877 377.82Z" fill="white"/>
<path d="M171.877 377.82L136.571 464.733C123.37 467.258 98.164 456.892 93.0254 450.425C93.1435 448.978 93.2912 447.28 93.4684 445.33C139.361 455.165 148.177 402.627 161.156 375.826C172.497 352.437 165.187 297.418 163.017 283.021C164.7 282.224 166.428 281.545 168.2 280.983L171.877 377.82Z" fill="url(#paint23_linear_29_11388)"/>
<path d="M254.627 336.933C256.559 336.933 258.126 335.366 258.126 333.433C258.126 331.5 256.559 329.934 254.627 329.934C252.694 329.934 251.127 331.5 251.127 333.433C251.127 335.366 252.694 336.933 254.627 336.933Z" fill="#352D57"/>
<path d="M269.821 336.933C271.754 336.933 273.32 335.366 273.32 333.433C273.32 331.5 271.754 329.934 269.821 329.934C267.888 329.934 266.321 331.5 266.321 333.433C266.321 335.366 267.888 336.933 269.821 336.933Z" fill="#352D57"/>
<path d="M285.015 336.933C286.948 336.933 288.515 335.366 288.515 333.433C288.515 331.5 286.948 329.934 285.015 329.934C283.082 329.934 281.516 331.5 281.516 333.433C281.516 335.366 283.082 336.933 285.015 336.933Z" fill="#352D57"/>
<path d="M300.166 336.933C302.098 336.933 303.665 335.366 303.665 333.433C303.665 331.5 302.098 329.934 300.166 329.934C298.233 329.934 296.666 331.5 296.666 333.433C296.666 335.366 298.233 336.933 300.166 336.933Z" fill="#352D57"/>
<path d="M315.36 336.933C317.293 336.933 318.859 335.366 318.859 333.433C318.859 331.5 317.293 329.934 315.36 329.934C313.427 329.934 311.86 331.5 311.86 333.433C311.86 335.366 313.427 336.933 315.36 336.933Z" fill="#352D57"/>
<path d="M108.044 693.18L111.854 717.81L102.152 732.163L67.3779 726.182L76.149 691.098L108.044 693.18Z" fill="white"/>
<path d="M120.89 746.338C116.253 750.62 111.75 745.6 107.379 731.277L113.271 720.069C117.907 733.684 120.447 742.44 120.89 746.338Z" fill="white"/>
<path d="M102.329 734.112C102.329 736.681 102.654 740.831 103.303 746.56C110.746 755.42 112.311 762.035 107.999 766.406L92.8048 746.649L90.5898 732.163L102.329 734.112Z" fill="white"/>
<path d="M88.6403 732.296C89.1424 735.633 89.7183 740.166 90.368 745.895C97.8101 754.755 99.4639 761.075 95.3294 764.855L80.6666 746.56L78.6289 730.302L88.6403 732.296Z" fill="white"/>
<path d="M76.1042 730.17C76.7539 733.802 77.3298 738.498 77.8318 744.256C83.7973 753.116 84.9048 759.303 81.1542 762.818L69.6809 745.63L67.2002 728.575L76.1042 730.17Z" fill="white"/>
<path d="M531.802 406.083C529.809 414.101 511.204 433.991 498.136 437.18L485.378 425.131L413.969 357L393.016 283.199C407.678 281.472 423.094 287.097 438.067 296.799C481.657 325.061 522.013 388.009 531.802 406.083Z" fill="white"/>
<path d="M531.802 406.083C529.808 414.101 511.203 433.991 498.135 437.181L485.377 425.131C489.187 382.383 454.457 322.403 438.066 296.799C481.656 325.061 522.012 388.009 531.802 406.083Z" fill="url(#paint24_linear_29_11388)"/>
<path d="M517.804 407.722C528.834 407.944 537.561 417.025 537.384 428.011C537.163 438.997 528.081 447.768 517.095 447.546C506.109 447.369 497.338 438.288 497.56 427.302C497.737 416.272 506.818 407.545 517.804 407.722Z" fill="#352D57"/>
<path d="M586.953 242.091C576.012 318.948 564.715 394.654 542.832 431.953C526.486 437.225 512.311 432.751 499.597 421.942C499.124 417.542 498.814 413.2 498.667 408.918C496.585 344.154 530.517 290.952 554.084 233.275C556.963 229.687 564.981 229.51 572.512 231.902C578.581 233.807 584.34 237.351 586.953 242.091Z" fill="white"/>
<path d="M586.953 242.09C576.011 318.948 564.715 394.654 542.831 431.953C526.485 437.225 512.31 432.751 499.596 421.942C499.124 417.542 498.814 413.2 498.666 408.918C504.026 414.234 512.133 419.284 522.986 417.866C544.382 415.031 565.246 318.727 567.196 296.267C568.923 276.732 571.803 240.85 572.511 231.902C578.58 233.807 584.339 237.351 586.953 242.09Z" fill="url(#paint25_linear_29_11388)"/>
<path d="M584.472 243.109C583.586 245.9 576.676 246.21 569.101 243.818C561.481 241.426 556.033 237.218 556.919 234.427C557.76 231.636 564.671 231.326 572.246 233.718C579.865 236.11 585.314 240.319 584.472 243.109Z" fill="#352D57"/>
<path d="M580.972 157.57C579.82 160.139 577.251 161.335 575.169 160.228C573.087 159.165 572.289 156.197 573.441 153.627C574.549 151.014 577.162 149.862 579.244 150.925C581.326 152.033 582.079 155.001 580.972 157.57Z" fill="#4D4180"/>
<path d="M577.029 173.739C575.878 176.308 573.308 177.504 571.226 176.397C569.144 175.289 568.347 172.321 569.499 169.752C570.606 167.183 573.22 165.987 575.302 167.094C577.384 168.202 578.137 171.17 577.029 173.739Z" fill="#4D4180"/>
<path d="M573.088 153.051C576.942 141.8 580.84 132.63 583.011 133.782C585.181 134.889 584.251 144.635 582.391 155.842C581.859 155.709 581.948 153.627 580.929 153.361C579.068 152.874 576.942 152.298 576.41 152.077C575.613 151.767 573.841 153.361 573.088 153.051Z" fill="white"/>
<path d="M577.606 169.265C575.125 168.792 573.294 168.423 572.113 168.157C570.651 167.847 568.037 169.84 567.771 169.796C569.189 165.012 570.784 159.873 572.423 155.045C572.644 155.133 573.84 158.456 575.302 158.899C576.631 159.297 578.226 159.785 579.511 160.183C580.884 160.582 581.903 157.88 582.036 157.924C581.194 162.576 580.264 167.448 579.333 171.967C578.861 171.081 578.285 170.18 577.606 169.265Z" fill="white"/>
<path d="M578.89 174.004C577.443 180.738 575.952 187.397 574.416 193.983L561.88 190.661C563.356 185.05 565.114 178.774 567.151 171.834C568.17 171.922 569.588 173.251 570.607 173.384C571.936 173.606 573.53 174.403 574.859 174.669C576.454 174.979 577.163 174.625 578.89 174.004Z" fill="white"/>
<path d="M609.635 200.007L590.675 235.756C586.289 240.629 566.045 240.319 557.85 229.82C555.96 227.339 554.69 223.559 554.04 218.48L562.501 198.368L563.919 185.433L609.635 200.007Z" fill="url(#paint26_linear_29_11388)"/>
<path d="M576.542 189.864C578.787 182.628 581.327 179.306 584.162 179.896C586.967 180.517 588.931 182.672 590.053 186.364C592.091 184.385 594.158 183.824 596.255 184.681C598.352 185.567 599.607 187.353 600.02 190.041C603.269 187.294 606.34 187.088 609.234 189.421C613.531 192.964 605.115 210.241 600.685 213.519C597.761 215.675 595.576 213.962 594.129 208.38C590.26 212.131 587.041 212.854 584.472 210.551C581.932 208.277 581.002 206.328 581.681 204.704C578.167 207.214 575.642 207.509 574.106 205.59C572.541 203.67 573.353 198.428 576.542 189.864Z" fill="white"/>
<path fill-rule="evenodd" clip-rule="evenodd" d="M598.824 214.936C598.441 214.966 598.057 214.907 597.673 214.759C595.546 214.05 594.306 211.215 593.774 209.62C591.914 211.127 587.395 214.095 584.029 211.082C581.725 209 581.016 207.228 580.884 206.032C579.067 207.051 575.524 208.513 573.53 206.032C571.049 202.931 575.346 191.104 575.878 189.642C576.277 188.402 579.599 178.213 584.295 179.232C587.794 179.985 589.655 183.484 590.363 185.212C591.56 184.326 593.996 182.997 596.521 184.06C598.957 185.079 600.021 187.471 600.464 188.889C602.191 187.781 606.089 185.965 609.678 188.889C610.696 189.73 611.184 191.148 611.139 193.097C610.962 199.476 604.938 211.215 601.128 214.05C600.36 214.611 599.592 214.907 598.824 214.936ZM594.483 207.051L594.793 208.203C595.103 209.443 596.344 212.81 598.116 213.474C598.78 213.696 599.489 213.519 600.286 212.943C603.476 210.595 609.589 199.432 609.722 193.053C609.766 191.547 609.456 190.528 608.792 189.952C604.982 186.851 600.641 190.395 600.464 190.572L599.533 191.37L599.356 190.129C599.356 190.085 598.692 186.452 595.989 185.345C593.331 184.237 590.585 186.851 590.541 186.851L589.699 187.648L589.389 186.585C589.389 186.497 587.75 181.402 583.984 180.605C581.061 179.985 578.049 187.427 577.207 190.085V190.129C575.391 194.958 573.131 203.286 574.638 205.146C576.498 207.494 581.238 204.172 581.282 204.127L583.276 202.71L582.301 204.969C582.301 204.969 581.592 207.051 584.959 210.019C588.237 212.987 593.553 207.937 593.642 207.893L594.483 207.051Z" fill="#4D4180"/>
<path d="M594.129 209.088C594.07 209.088 594.011 209.074 593.952 209.044C593.598 208.955 593.332 208.601 593.42 208.247C593.598 207.671 596.876 194.071 599.224 190.793C599.445 190.483 599.844 190.394 600.154 190.616C600.464 190.837 600.553 191.28 600.331 191.591C598.16 194.647 594.794 208.424 594.794 208.557C594.705 208.867 594.439 209.044 594.129 209.088Z" fill="#4D4180"/>
<path d="M581.681 206.165C581.593 206.165 581.504 206.15 581.415 206.12C581.061 205.988 580.884 205.589 581.017 205.234C581.238 204.659 586.731 190.439 589.035 187.205C589.256 186.895 589.699 186.806 590.009 187.028C590.319 187.249 590.364 187.692 590.142 188.002C587.927 191.103 582.346 205.589 582.301 205.722C582.213 205.988 581.947 206.165 581.681 206.165Z" fill="#4D4180"/>
<path d="M560.197 227.162C552.223 223.308 549.166 208.645 562.5 198.368C566.93 199.653 575.479 204.526 576.587 212.765C578.004 223.352 568.48 231.902 560.197 227.162Z" fill="#4D4180"/>
<path d="M554.881 220.163C547.911 205.988 546.361 195.725 550.23 189.376C554.098 183.056 567.299 184.414 589.832 193.451C590.098 197.438 587.322 199.801 581.504 200.539C577.252 201.071 571.744 200.569 564.981 199.033C569.677 204.142 572.172 208.897 572.467 213.297C573.043 221.359 562.545 229.111 554.881 220.163Z" fill="white"/>
<path d="M580.219 200.893C573.795 201.159 566.22 199.786 565.777 199.741C565.423 199.653 565.157 199.299 565.246 198.944C565.29 198.545 565.689 198.28 566.043 198.368C566.176 198.413 581.105 201.07 586.332 198.324C589.034 196.951 589.211 194.47 589.167 193.54C586.288 192.477 568.745 186.142 559.93 186.009C559.576 186.009 559.266 185.699 559.266 185.345C559.266 184.946 559.576 184.636 559.974 184.636C569.72 184.769 589.211 192.078 590.053 192.388L590.407 192.521L590.496 192.92C590.762 194.47 590.363 197.792 586.996 199.564C585.313 200.45 582.877 200.805 580.219 200.893Z" fill="#4D4180"/>
<path d="M109.107 675.904C99.8933 683.878 77.7884 680.733 75.1748 672.892C75.1453 672.124 75.1157 671.356 75.0862 670.589C72.4283 604.938 57.8541 540.13 88.9073 477.005C97.9885 473.638 106.804 472.442 115.265 474.125C121.378 475.321 127.27 478.023 132.984 482.453C140.692 524.98 125.232 599.977 109.107 675.904Z" fill="white"/>
<path d="M109.108 675.904C99.894 683.878 77.7891 680.733 75.1755 672.892C75.146 672.124 75.1164 671.356 75.0869 670.589C130.504 681.264 116.595 490.826 115.266 474.125C121.379 475.321 127.27 478.023 132.985 482.453C140.693 524.98 125.233 599.977 109.108 675.904Z" fill="url(#paint27_linear_29_11388)"/>
<path d="M321.739 213.872L308.715 274.295C307.386 279.434 291.926 277.972 281.649 274.206C279.212 273.276 277.042 272.257 275.447 271.15C273.631 269.865 272.523 268.492 272.523 267.119L285.591 206.519L321.739 213.872Z" fill="#352D57"/>
<path d="M290.597 234.914L281.649 274.206C279.567 273.409 277.751 272.567 276.289 271.681L284.927 232.832C286.743 233.718 288.693 234.559 290.597 234.914Z" fill="#524787"/>
<path d="M334.495 205.633L329.091 232.034C328.028 237.395 302.158 234.028 284.926 228.801C283.375 228.313 281.869 227.826 280.496 227.339C273.762 224.902 269.244 222.244 269.731 219.941L275.136 193.495L334.495 205.633Z" fill="#352D57"/>
<path d="M287.717 215.201L284.926 228.801C283.375 228.313 281.869 227.826 280.496 227.339L283.42 212.942L287.717 215.201Z" fill="#524787"/>
<path d="M264.106 268.669C253.076 266.764 244.881 259.898 241.735 249.842C238.413 239.388 241.16 227.383 248.602 219.941C256 212.543 266.72 210.505 278.769 214.315L277.174 219.276C267.118 216.087 258.259 217.637 252.278 223.618C246.21 229.731 243.95 239.654 246.653 248.248C248.203 253.032 252.589 261.404 265.036 263.575L264.106 268.669Z" fill="#352D57"/>
<path d="M360.679 220.163C351.73 224.858 340.833 225.788 329.581 223.751C307.432 219.808 283.821 204.348 270.842 183.085C242.358 141.311 245.591 104.898 262.956 82.6604C273.721 68.8836 289.934 60.5998 307.388 59.891C317.488 59.4481 327.942 61.5744 338.042 66.6244C352.351 73.8007 365.862 86.8688 376.272 107.069C379.195 112.783 381.898 119.029 384.29 125.94C384.496 126.501 384.703 127.077 384.91 127.668C396.339 161.689 389.428 205.19 360.679 220.163Z" fill="url(#paint28_linear_29_11388)"/>
<path d="M384.909 127.667C368.607 134.223 320.587 155.132 307.209 152.12C298.32 150.112 291.572 145.726 286.965 138.963L376.27 107.068C379.194 112.783 381.896 119.029 384.288 125.94C384.495 126.501 384.702 127.077 384.909 127.667Z" fill="#352D57"/>
<path d="M289.844 165.808C299.767 180.56 299.812 197.925 289.889 204.614C279.966 211.347 263.841 204.791 253.918 190.084C243.951 175.332 243.951 157.967 253.874 151.278C263.797 144.545 279.877 151.101 289.844 165.808Z" fill="#352D57"/>
<path d="M276.954 171.833C284.839 183.528 284.883 197.304 276.998 202.62C269.157 207.936 256.355 202.753 248.47 191.058C240.585 179.364 240.585 165.587 248.426 160.271C256.311 154.955 269.069 160.138 276.954 171.833Z" fill="url(#paint29_linear_29_11388)"/>
<path d="M271.284 176.307C276.954 184.679 276.954 194.602 271.284 198.412C265.658 202.221 256.488 198.5 250.818 190.128C245.148 181.711 245.148 171.833 250.773 168.023C256.444 164.213 265.613 167.89 271.284 176.307Z" fill="url(#paint30_linear_29_11388)"/>
<path style="mix-blend-mode:screen" opacity="0.4" d="M525.423 128.021V157.967H0V128.021H525.423Z" fill="url(#paint31_linear_29_11388)"/>
<path style="mix-blend-mode:screen" opacity="0.4" d="M620 110.391V124.832H94.5771V110.391H620Z" fill="url(#paint32_linear_29_11388)"/>
<defs>
<linearGradient id="paint0_linear_29_11388" x1="95.0648" y1="552.002" x2="94.8876" y2="212.721" gradientUnits="userSpaceOnUse">
<stop offset="0.3" stop-color="#241F3C"/>
<stop offset="1" stop-color="#876CFF"/>
</linearGradient>
<linearGradient id="paint1_linear_29_11388" x1="141.49" y1="518.114" x2="144.414" y2="221.359" gradientUnits="userSpaceOnUse">
<stop stop-color="#241F3C"/>
<stop offset="1" stop-color="#876CFF"/>
</linearGradient>
<linearGradient id="paint2_linear_29_11388" x1="141.667" y1="518.114" x2="144.591" y2="221.359" gradientUnits="userSpaceOnUse">
<stop offset="0.3" stop-color="#241F3C"/>
<stop offset="1" stop-color="#876CFF"/>
</linearGradient>
<linearGradient id="paint3_linear_29_11388" x1="141.845" y1="518.114" x2="144.724" y2="221.359" gradientUnits="userSpaceOnUse">
<stop offset="0.3" stop-color="#241F3C"/>
<stop offset="1" stop-color="#876CFF"/>
</linearGradient>
<linearGradient id="paint4_linear_29_11388" x1="142.022" y1="518.114" x2="144.901" y2="221.359" gradientUnits="userSpaceOnUse">
<stop offset="0.3" stop-color="#241F3C"/>
<stop offset="1" stop-color="#876CFF"/>
</linearGradient>
<linearGradient id="paint5_linear_29_11388" x1="142.199" y1="518.113" x2="145.078" y2="221.359" gradientUnits="userSpaceOnUse">
<stop offset="0.3" stop-color="#241F3C"/>
<stop offset="1" stop-color="#876CFF"/>
</linearGradient>
<linearGradient id="paint6_linear_29_11388" x1="613.622" y1="825.323" x2="613.445" y2="415.032" gradientUnits="userSpaceOnUse">
<stop offset="0.3" stop-color="#241F3C"/>
<stop offset="1" stop-color="#876CFF"/>
</linearGradient>
<linearGradient id="paint7_linear_29_11388" x1="484.005" y1="404.754" x2="483.827" y2="65.4724" gradientUnits="userSpaceOnUse">
<stop offset="0.3" stop-color="#241F3C"/>
<stop offset="1" stop-color="#876CFF"/>
</linearGradient>
<linearGradient id="paint8_linear_29_11388" x1="157.394" y1="393.591" x2="157.217" y2="54.3101" gradientUnits="userSpaceOnUse">
<stop offset="0.3" stop-color="#241F3C"/>
<stop offset="1" stop-color="#876CFF"/>
</linearGradient>
<linearGradient id="paint9_linear_29_11388" x1="343.268" y1="3232.5" x2="376.669" y2="29.5914" gradientUnits="userSpaceOnUse">
<stop stop-color="#241F3C"/>
<stop offset="1" stop-color="#876CFF"/>
</linearGradient>
<linearGradient id="paint10_linear_29_11388" x1="344.686" y1="3232.81" x2="378.131" y2="29.857" gradientUnits="userSpaceOnUse">
<stop stop-color="#241F3C"/>
<stop offset="1" stop-color="#876CFF"/>
</linearGradient>
<linearGradient id="paint11_linear_29_11388" x1="346.148" y1="3233.07" x2="379.549" y2="30.1673" gradientUnits="userSpaceOnUse">
<stop stop-color="#241F3C"/>
<stop offset="1" stop-color="#876CFF"/>
</linearGradient>
<linearGradient id="paint12_linear_29_11388" x1="347.609" y1="3233.38" x2="381.01" y2="30.4773" gradientUnits="userSpaceOnUse">
<stop stop-color="#241F3C"/>
<stop offset="1" stop-color="#876CFF"/>
</linearGradient>
<linearGradient id="paint13_linear_29_11388" x1="64.7209" y1="4190.23" x2="107.203" y2="119.916" gradientUnits="userSpaceOnUse">
<stop stop-color="#241F3C"/>
<stop offset="1" stop-color="#876CFF"/>
</linearGradient>
<linearGradient id="paint14_linear_29_11388" x1="66.537" y1="4190.58" x2="109.019" y2="120.314" gradientUnits="userSpaceOnUse">
<stop stop-color="#241F3C"/>
<stop offset="1" stop-color="#876CFF"/>
</linearGradient>
<linearGradient id="paint15_linear_29_11388" x1="243.951" y1="420.701" x2="237.616" y2="558.78" gradientUnits="userSpaceOnUse">
<stop stop-color="white"/>
<stop offset="1" stop-color="#BCB3FF"/>
</linearGradient>
<linearGradient id="paint16_linear_29_11388" x1="410.69" y1="428.587" x2="404.355" y2="566.665" gradientUnits="userSpaceOnUse">
<stop stop-color="white"/>
<stop offset="1" stop-color="#BCB3FF"/>
</linearGradient>
<linearGradient id="paint17_linear_29_11388" x1="395.008" y1="273.453" x2="395.008" y2="495.565" gradientUnits="userSpaceOnUse">
<stop stop-color="white"/>
<stop offset="1" stop-color="#BCB3FF"/>
</linearGradient>
<linearGradient id="paint18_linear_29_11388" x1="396.47" y1="160.271" x2="391.686" y2="827.98" gradientUnits="userSpaceOnUse">
<stop stop-color="white"/>
<stop offset="1" stop-color="#BCB3FF"/>
</linearGradient>
<linearGradient id="paint19_linear_29_11388" x1="224.415" y1="297.551" x2="223.352" y2="265.479" gradientUnits="userSpaceOnUse">
<stop stop-color="white"/>
<stop offset="1" stop-color="#BCB3FF"/>
</linearGradient>
<linearGradient id="paint20_linear_29_11388" x1="200.405" y1="535.168" x2="378.972" y2="535.168" gradientUnits="userSpaceOnUse">
<stop stop-color="white"/>
<stop offset="1" stop-color="#BCB3FF"/>
</linearGradient>
<linearGradient id="paint21_linear_29_11388" x1="181.533" y1="568.17" x2="259.233" y2="568.17" gradientUnits="userSpaceOnUse">
<stop stop-color="white"/>
<stop offset="1" stop-color="#BCB3FF"/>
</linearGradient>
<linearGradient id="paint22_linear_29_11388" x1="324.086" y1="568.17" x2="409.05" y2="568.17" gradientUnits="userSpaceOnUse">
<stop stop-color="white"/>
<stop offset="1" stop-color="#BCB3FF"/>
</linearGradient>
<linearGradient id="paint23_linear_29_11388" x1="93.0254" y1="280.097" x2="171.256" y2="280.097" gradientUnits="userSpaceOnUse">
<stop stop-color="white"/>
<stop offset="1" stop-color="#BCB3FF"/>
</linearGradient>
<linearGradient id="paint24_linear_29_11388" x1="438.066" y1="295.913" x2="531.802" y2="295.913" gradientUnits="userSpaceOnUse">
<stop stop-color="white"/>
<stop offset="1" stop-color="#BCB3FF"/>
</linearGradient>
<linearGradient id="paint25_linear_29_11388" x1="545.932" y1="224.194" x2="598.825" y2="237.749" gradientUnits="userSpaceOnUse">
<stop stop-color="white"/>
<stop offset="1" stop-color="#BCB3FF"/>
</linearGradient>
<linearGradient id="paint26_linear_29_11388" x1="610.476" y1="198.988" x2="600.598" y2="258.703" gradientUnits="userSpaceOnUse">
<stop stop-color="white"/>
<stop offset="1" stop-color="#BCB3FF"/>
</linearGradient>
<linearGradient id="paint27_linear_29_11388" x1="75.0869" y1="473.239" x2="129.84" y2="473.239" gradientUnits="userSpaceOnUse">
<stop stop-color="white"/>
<stop offset="1" stop-color="#BCB3FF"/>
</linearGradient>
<linearGradient id="paint28_linear_29_11388" x1="364.798" y1="41.4629" x2="412.198" y2="256.664" gradientUnits="userSpaceOnUse">
<stop stop-color="white"/>
<stop offset="1" stop-color="#BCB3FF"/>
</linearGradient>
<linearGradient id="paint29_linear_29_11388" x1="258.482" y1="141.621" x2="319.436" y2="241.027" gradientUnits="userSpaceOnUse">
<stop stop-color="white"/>
<stop offset="1" stop-color="#BCB3FF"/>
</linearGradient>
<linearGradient id="paint30_linear_29_11388" x1="269.157" y1="155.974" x2="280.542" y2="201.468" gradientUnits="userSpaceOnUse">
<stop stop-color="white"/>
<stop offset="1" stop-color="#BCB3FF"/>
</linearGradient>
<linearGradient id="paint31_linear_29_11388" x1="529.321" y1="158.853" x2="-63.6125" y2="158.853" gradientUnits="userSpaceOnUse">
<stop/>
<stop offset="0.5" stop-color="#996CE6"/>
<stop offset="1"/>
</linearGradient>
<linearGradient id="paint32_linear_29_11388" x1="623.899" y1="125.718" x2="30.9647" y2="125.718" gradientUnits="userSpaceOnUse">
<stop/>
<stop offset="0.5" stop-color="#996CE6"/>
<stop offset="1"/>
</linearGradient>
</defs>
</svg>
