<svg width="707" height="906" viewBox="0 0 707 906" fill="none" xmlns="http://www.w3.org/2000/svg">
<path d="M463.663 795.739V814.056C465.771 814.416 467.352 815.77 467.352 817.394C467.352 819.289 465.112 820.823 462.214 820.823C459.448 820.823 457.208 819.289 457.208 817.394C457.208 815.77 458.789 814.416 460.897 814.056V797.543H418.083L385.809 819.65H255.393V800.25H25.123V798.356H258.159V817.845H384.623L416.898 795.739H463.663Z" fill="url(#paint0_linear_29_9469)"/>
<path d="M379.09 810.266L411.365 788.16H479.207V800.521C481.315 800.882 482.896 802.235 482.896 803.86C482.896 805.754 480.656 807.288 477.89 807.288C475.123 807.288 472.884 805.754 472.884 803.86C472.884 802.235 474.465 800.882 476.573 800.521V790.054H412.55L380.276 812.161H266.326V792.671H19.5898V790.866H269.093V810.266H379.09Z" fill="url(#paint1_linear_29_9469)"/>
<path d="M497.386 777.242C500.284 777.242 502.523 778.776 502.523 780.761C502.523 782.656 500.284 784.189 497.386 784.189C495.146 784.189 493.17 783.107 492.512 781.663H408.071L375.796 803.769H278.972V784.28H15.1104V782.475H281.738V801.875H374.61L406.885 779.768H492.512C493.17 778.324 495.146 777.242 497.386 777.242Z" fill="url(#paint2_linear_29_9469)"/>
<path d="M293.2 792.671V773.272H62.7988V771.467H295.835V790.866H352.085C352.744 789.333 354.588 788.25 356.959 788.25C359.726 788.25 362.097 789.874 362.097 791.769C362.097 793.664 359.726 795.197 356.959 795.197C354.588 795.197 352.744 794.115 352.085 792.671H293.2Z" fill="url(#paint3_linear_29_9469)"/>
<path d="M304.002 785.182V765.783H57.2656V763.888H306.768V783.287H368.947C369.605 781.843 371.449 780.761 373.821 780.761C376.587 780.761 378.827 782.295 378.827 784.28C378.827 786.175 376.587 787.708 373.821 787.708C371.449 787.708 369.473 786.626 368.947 785.182H304.002Z" fill="url(#paint4_linear_29_9469)"/>
<path d="M385.941 772.369C388.707 772.369 390.946 773.903 390.946 775.888C390.946 777.783 388.707 779.317 385.941 779.317C383.569 779.317 381.725 778.234 381.066 776.791H316.781V757.391H52.7871V755.496H319.415V774.896H381.066C381.725 773.452 383.569 772.369 385.941 772.369Z" fill="url(#paint5_linear_29_9469)"/>
<path d="M125.767 748.458V746.564H353.27V765.963H448.25V748.458H374.216V755.767H416.765C417.424 754.323 419.268 753.241 421.639 753.241C424.406 753.241 426.645 754.774 426.645 756.669C426.645 758.564 424.406 760.188 421.639 760.188C419.268 760.188 417.292 759.105 416.765 757.572H371.449V746.564H450.884V767.858H350.635V748.458H125.767Z" fill="url(#paint6_linear_29_9469)"/>
<path d="M570.236 879.472C573.002 879.472 575.373 881.006 575.373 882.991C575.373 884.886 573.002 886.42 570.236 886.42C567.996 886.42 566.02 885.337 565.362 883.894H433.496L401.222 906H270.938V886.601H40.5361V884.706H273.572V904.105H400.036L432.311 881.999H565.362C566.02 880.555 567.996 879.472 570.236 879.472Z" fill="url(#paint7_linear_29_9469)"/>
<path d="M540.594 871.983C543.492 871.983 545.732 873.517 545.732 875.412C545.732 877.397 543.492 878.931 540.594 878.931C538.355 878.931 536.379 877.848 535.72 876.405H427.962L395.688 898.421H281.738V879.021H35.002V877.217H284.505V896.616H394.634L426.777 874.51H535.72C536.379 873.066 538.355 871.983 540.594 871.983Z" fill="url(#paint8_linear_29_9469)"/>
<path d="M514.643 863.592C517.41 863.592 519.649 865.126 519.649 867.021C519.649 869.006 517.41 870.54 514.643 870.54C512.272 870.54 510.296 869.457 509.769 868.013H423.484L391.209 890.029H294.385V870.63H30.5234V868.825H297.152V888.225H390.023L422.298 866.118H509.769C510.296 864.675 512.272 863.592 514.643 863.592Z" fill="url(#paint9_linear_29_9469)"/>
<path d="M611.467 590.195C614.234 590.195 616.605 591.729 616.605 593.624C616.605 595.609 614.234 597.142 611.467 597.142C609.096 597.142 607.252 596.06 606.593 594.616H515.565L483.291 616.632H303.607V671.492H-37.0557V669.687H300.84V614.828H482.237L514.38 592.721H606.593C607.252 591.278 609.096 590.195 611.467 590.195Z" fill="url(#paint10_linear_29_9469)"/>
<path d="M701.309 397.283C704.076 397.283 706.315 398.817 706.315 400.802C706.315 402.697 704.076 404.231 701.309 404.231C698.938 404.231 696.962 403.148 696.303 401.614H600.27L567.995 423.72L441.268 423.72V406.847H270.146L245.907 424.713H167.262V405.133H47.9121C47.2535 406.577 45.2775 407.659 43.038 407.659C40.1399 407.659 37.9004 406.125 37.9004 404.231C37.9004 402.336 40.1399 400.802 43.038 400.802C45.2775 400.802 47.2535 401.885 47.9121 403.328H169.897V422.908H244.722L268.961 405.043H444.034V421.825L566.809 421.825L599.084 399.809H696.435C696.962 398.366 698.938 397.283 701.309 397.283Z" fill="url(#paint11_linear_29_9469)"/>
<path d="M683.92 389.884C686.686 389.884 689.057 391.508 689.057 393.403C689.057 395.298 686.686 396.832 683.92 396.832C681.549 396.832 679.441 395.659 679.046 394.125H600.006L567.731 416.231L453.782 416.231V396.742H263.164L234.578 416.231H180.435V396.742H3.38585C2.85892 398.185 0.882921 399.268 -1.48828 399.268C-4.25468 399.268 -6.49414 397.734 -6.49414 395.839C-6.49414 393.944 -4.25468 392.32 -1.48828 392.32C0.882921 392.32 2.85892 393.403 3.38585 394.937H183.07V414.336H233.392L262.11 394.937H456.548V414.336L566.546 414.336L598.82 392.23H679.177C679.836 390.877 681.68 389.884 683.92 389.884Z" fill="url(#paint12_linear_29_9469)"/>
<path d="M588.941 582.706C591.707 582.706 593.947 584.24 593.947 586.134C593.947 588.029 591.707 589.563 588.941 589.563C586.57 589.563 584.594 588.48 584.067 587.037H510.033L477.758 609.143H291.224V664.003H-37.0557V662.108H288.457V607.338H476.704L508.847 585.232H584.067C584.594 583.788 586.57 582.706 588.941 582.706Z" fill="url(#paint13_linear_29_9469)"/>
<path d="M500.811 571.698C503.578 571.698 505.817 573.232 505.817 575.126C505.817 577.111 503.578 578.645 500.811 578.645C498.44 578.645 496.596 577.563 495.937 576.119H404.91L372.635 598.135H242.219V578.736H11.9492V576.931H244.985V596.33H371.449L403.724 574.224H495.937C496.596 572.78 498.44 571.698 500.811 571.698Z" fill="url(#paint14_linear_29_9469)"/>
<path d="M478.285 564.118C481.051 564.118 483.29 565.742 483.29 567.637C483.29 569.532 481.051 571.066 478.285 571.066C475.913 571.066 473.937 569.983 473.41 568.54H399.376L367.102 590.646H253.152V571.246H6.41602V569.352H255.919V588.751H365.916L398.191 566.735H473.41C473.937 565.201 475.913 564.118 478.285 564.118Z" fill="url(#paint15_linear_29_9469)"/>
<path d="M473.806 555.727C476.572 555.727 478.812 557.351 478.812 559.246C478.812 561.141 476.572 562.675 473.806 562.675C471.435 562.675 469.459 561.592 468.932 560.148H394.766L362.623 582.255H265.799V562.855H1.9375L1.9375 560.96H268.566V580.36H361.438L393.712 558.344H468.932C469.459 556.81 471.435 555.727 473.806 555.727Z" fill="url(#paint16_linear_29_9469)"/>
<path d="M240.374 657.326C237.608 657.326 235.236 655.702 235.236 653.807C235.236 652.183 236.817 650.92 239.057 650.468V634.047H196.112L163.837 656.063H33.5528V636.663H-196.849V634.859H36.1875V654.258H162.783L195.058 632.152H241.691V650.468C243.799 650.92 245.38 652.183 245.38 653.807C245.38 655.702 243.14 657.326 240.374 657.326Z" fill="url(#paint17_linear_29_9469)"/>
<path d="M44.4873 648.574V629.174H-202.381V627.279H47.1219V646.679H157.251L189.526 624.663H257.368V636.934C259.476 637.385 261.057 638.648 261.057 640.273C261.057 642.167 258.817 643.791 255.919 643.791C253.153 643.791 250.913 642.167 250.913 640.273C250.913 638.648 252.494 637.385 254.602 636.934V626.467H190.579L158.305 648.574H44.4873Z" fill="url(#paint18_linear_29_9469)"/>
<path d="M57.1331 640.182V620.783H-206.86V618.888H59.7678V638.287H152.771L184.914 616.271H270.673C271.2 614.737 273.176 613.655 275.547 613.655C278.313 613.655 280.553 615.279 280.553 617.174C280.553 619.068 278.313 620.602 275.547 620.602C273.176 620.602 271.2 619.52 270.673 618.076H186.1L153.825 640.182H57.1331Z" fill="url(#paint19_linear_29_9469)"/>
<path d="M71.2296 629.084V609.684H-159.172V607.88H73.996V627.279H130.246C130.773 625.836 132.749 624.753 134.989 624.753C137.887 624.753 140.126 626.287 140.126 628.182C140.126 630.167 137.887 631.701 134.989 631.701C132.749 631.701 130.773 630.618 130.246 629.084H71.2296Z" fill="url(#paint20_linear_29_9469)"/>
<path d="M82.1622 621.595V602.195H-164.574V600.391H84.7968V619.79H146.975C147.634 618.256 149.61 617.174 151.849 617.174C154.615 617.174 156.987 618.798 156.987 620.693C156.987 622.587 154.615 624.121 151.849 624.121C149.61 624.121 147.634 623.039 146.975 621.595H82.1622Z" fill="url(#paint21_linear_29_9469)"/>
<path d="M94.8098 613.203V593.804H-169.184V591.909H97.5762V611.399H159.096C159.754 609.865 161.73 608.782 163.97 608.782C166.868 608.782 169.107 610.406 169.107 612.301C169.107 614.196 166.868 615.73 163.97 615.73C161.73 615.73 159.754 614.647 159.096 613.203H94.8098Z" fill="url(#paint22_linear_29_9469)"/>
<path d="M128.666 604.271V584.871H-96.2031V583.067H131.3V602.466H226.28V584.871H152.246V592.18H194.796C195.454 590.736 197.43 589.653 199.67 589.653C202.568 589.653 204.807 591.187 204.807 593.082C204.807 595.067 202.568 596.601 199.67 596.601C197.43 596.601 195.454 595.518 194.796 594.075H149.479V583.067H229.046V604.271H128.666Z" fill="url(#paint23_linear_29_9469)"/>
<path d="M486.979 712.547L519.254 690.531H621.479V692.335H520.44L488.165 714.442H361.438V697.569H190.316L166.077 715.434H87.4324V695.854H-31.918C-32.5766 697.298 -34.5526 698.381 -36.7921 698.381C-39.6902 698.381 -41.9297 696.847 -41.9297 694.952C-41.9297 693.057 -39.6902 691.433 -36.7921 691.433C-34.5526 691.433 -32.5766 692.516 -31.918 694.05H90.067V713.63H164.892L189.13 695.764H364.204V712.547H486.979Z" fill="url(#paint24_linear_29_9469)"/>
<path d="M486.715 705.058L518.99 682.951H604.09V684.846H520.176L487.901 706.862H373.952V687.463H183.334L154.748 706.862H100.605V687.463H-76.4442C-76.9712 688.906 -78.9472 689.989 -81.3184 689.989C-84.0847 689.989 -86.3242 688.455 -86.3242 686.56C-86.3242 684.666 -84.0847 683.042 -81.3184 683.042C-78.9472 683.042 -76.9712 684.124 -76.4442 685.658H103.24V705.058H153.562L182.148 685.658H376.718V705.058H486.715Z" fill="url(#paint25_linear_29_9469)"/>
<path d="M589.468 673.026C592.234 673.026 594.474 674.65 594.474 676.545C594.474 678.44 592.234 679.974 589.468 679.974C587.097 679.974 585.121 678.891 584.594 677.447H510.56L478.285 699.554H381.593V680.154H-37.0557V678.259H384.227V697.659H477.231L509.374 675.643H584.594C585.121 674.109 587.097 673.026 589.468 673.026Z" fill="url(#paint26_linear_29_9469)"/>
<path d="M348.396 715.976C351.162 715.976 353.402 717.509 353.402 719.404C353.402 721.299 351.162 722.833 348.396 722.833C346.024 722.833 344.048 721.84 343.522 720.307H211.525L179.25 742.413H48.9659V723.013H-181.436V721.119H51.6006V740.608H178.196L210.471 718.502H343.522C344.048 717.058 346.024 715.976 348.396 715.976Z" fill="url(#paint27_linear_29_9469)"/>
<path d="M313.881 712.817H205.992L173.717 734.924H59.8994V715.524H-186.969V713.63H62.534V733.029H172.663L204.938 710.923H313.881C314.408 709.479 316.384 708.396 318.755 708.396C321.522 708.396 323.761 709.93 323.761 711.915C323.761 713.81 321.522 715.344 318.755 715.344C316.384 715.344 314.408 714.261 313.881 712.817Z" fill="url(#paint28_linear_29_9469)"/>
<path d="M72.5462 726.532V707.043H-191.447V705.238H75.1809V724.638H168.185L200.328 702.531H287.798C288.457 701.088 290.301 700.005 292.673 700.005C295.439 700.005 297.678 701.539 297.678 703.524C297.678 705.419 295.439 706.952 292.673 706.952C290.301 706.952 288.457 705.87 287.798 704.426H201.513L169.238 726.532H72.5462Z" fill="url(#paint29_linear_29_9469)"/>
<path d="M580.247 470.189C583.145 470.189 585.384 471.723 585.384 473.618C585.384 475.512 583.145 477.137 580.247 477.137C578.007 477.137 576.031 476.054 575.504 474.52L484.345 474.52L452.07 496.626H321.786V477.227H21.9609V475.422H324.421V494.822H451.016L483.291 472.715L575.504 472.715C576.031 471.272 578.007 470.189 580.247 470.189Z" fill="url(#paint30_linear_29_9469)"/>
<path d="M557.72 462.609C560.486 462.609 562.857 464.234 562.857 466.128C562.857 468.023 560.486 469.557 557.72 469.557C555.48 469.557 553.504 468.474 552.846 467.031L478.811 467.031L446.537 489.137H332.719V469.738H16.4277V467.843H335.354V487.242H445.483L477.758 465.226L552.846 465.226C553.504 463.692 555.48 462.609 557.72 462.609Z" fill="url(#paint31_linear_29_9469)"/>
<path d="M553.241 454.218C556.008 454.218 558.379 455.842 558.379 457.737C558.379 459.632 556.008 461.166 553.241 461.166C550.87 461.166 549.026 460.083 548.367 458.639L474.333 458.639L442.058 480.746H345.366V461.346H11.9492V459.451H348.001V478.851H441.004L473.279 456.835L548.367 456.835C549.026 455.301 550.87 454.218 553.241 454.218Z" fill="url(#paint32_linear_29_9469)"/>
<path d="M275.679 532.448L243.404 554.554H112.988V535.154H-117.281V533.35H115.755V552.749H242.219L274.493 530.643H321.259V565.923C323.367 566.374 324.947 567.728 324.947 569.261C324.947 571.246 322.708 572.78 319.81 572.78C317.043 572.78 314.804 571.246 314.804 569.261C314.804 567.728 316.385 566.374 318.492 565.923V532.448H275.679Z" fill="url(#paint33_linear_29_9469)"/>
<path d="M236.687 545.17L268.961 523.154H336.804V552.479C338.912 552.84 340.492 554.193 340.492 555.727C340.492 557.712 338.253 559.246 335.486 559.246C332.72 559.246 330.481 557.712 330.481 555.727C330.481 554.193 331.93 552.84 334.169 552.479V524.958H270.147L237.872 547.065H123.923V527.665H-122.813V525.771H126.689V545.17H236.687Z" fill="url(#paint34_linear_29_9469)"/>
<path d="M388.311 512.146C391.077 512.146 393.317 513.77 393.317 515.665C393.317 517.56 391.077 519.093 388.311 519.093C385.94 519.093 383.964 518.011 383.437 516.567H265.536L233.393 538.673H136.569V519.274H-127.293V517.379H139.335V536.779H232.207L264.482 514.762H383.437C383.964 513.229 385.94 512.146 388.311 512.146Z" fill="url(#paint35_linear_29_9469)"/>
<path d="M150.796 527.575V508.176H-79.6055V506.371H153.431V525.771H209.681C210.339 524.327 212.184 523.244 214.555 523.244C217.321 523.244 219.561 524.778 219.561 526.673C219.561 528.568 217.321 530.192 214.555 530.192C212.184 530.192 210.339 529.109 209.681 527.575H150.796Z" fill="url(#paint36_linear_29_9469)"/>
<path d="M161.598 520.086V500.687H-85.1387V498.792H164.364V518.281H226.542C227.069 516.748 229.045 515.665 231.416 515.665C234.183 515.665 236.422 517.289 236.422 519.184C236.422 521.079 234.183 522.612 231.416 522.612C229.045 522.612 227.069 521.53 226.542 520.086H161.598Z" fill="url(#paint37_linear_29_9469)"/>
<path d="M243.536 507.273C246.303 507.273 248.542 508.807 248.542 510.792C248.542 512.687 246.303 514.221 243.536 514.221C241.165 514.221 239.189 513.138 238.662 511.695H174.376V492.295H-89.6172V490.4H177.011V509.8H238.662C239.189 508.356 241.165 507.273 243.536 507.273Z" fill="url(#paint38_linear_29_9469)"/>
<path d="M308.481 481.468V502.762H208.232V483.362H-16.6367V481.468H210.867V500.957H305.846V483.362H231.68V490.671H274.362C274.889 489.227 276.865 488.145 279.236 488.145C282.003 488.145 284.242 489.679 284.242 491.573C284.242 493.558 282.003 495.092 279.236 495.092C276.865 495.092 274.889 494.01 274.362 492.566H229.046V481.468H308.481Z" fill="url(#paint39_linear_29_9469)"/>
<path d="M691.297 299.474C694.064 299.474 696.435 301.007 696.435 302.902C696.435 304.887 694.064 306.421 691.297 306.421C688.926 306.421 687.082 305.339 686.423 303.895L595.395 303.895L563.121 325.911H383.437V380.771H42.7744V378.966H380.67V324.106H562.067L594.21 302L686.423 302C687.082 300.556 688.926 299.474 691.297 299.474Z" fill="url(#paint40_linear_29_9469)"/>
<path d="M668.771 291.984C671.537 291.984 673.777 293.518 673.777 295.413C673.777 297.308 671.537 298.932 668.771 298.932C666.4 298.932 664.424 297.849 663.897 296.315L589.863 296.315L557.588 318.422H371.054V373.282H42.7744V371.477H368.287V316.617H556.534L588.677 294.511L663.897 294.511C664.424 293.067 666.4 291.984 668.771 291.984Z" fill="url(#paint41_linear_29_9469)"/>
<path d="M320.205 366.605C317.439 366.605 315.068 364.981 315.068 363.086C315.068 361.462 316.648 360.198 318.888 359.747V343.325H275.943L243.668 365.341H113.384V345.942H-117.018V344.137H116.019V363.537H242.614L274.889 341.43H321.522V359.747C323.63 360.198 325.211 361.462 325.211 363.086C325.211 364.981 322.971 366.605 320.205 366.605Z" fill="url(#paint42_linear_29_9469)"/>
<path d="M124.317 357.852V338.453H-122.551V336.558H126.952V355.958H237.081L269.356 333.941H337.198V346.213C339.306 346.664 340.887 347.927 340.887 349.551C340.887 351.446 338.647 353.07 335.749 353.07C332.983 353.07 330.743 351.446 330.743 349.551C330.743 347.927 332.324 346.664 334.432 346.213V335.746H270.41L238.135 357.852H124.317Z" fill="url(#paint43_linear_29_9469)"/>
<path d="M136.964 349.461V330.062H-127.029V328.167H139.599V347.566H232.603L264.745 325.55H350.504C351.031 324.016 353.007 323.024 355.378 323.024C358.144 323.024 360.384 324.558 360.384 326.452C360.384 328.347 358.144 329.881 355.378 329.881C353.007 329.881 351.031 328.798 350.504 327.355H265.931L233.656 349.461H136.964Z" fill="url(#paint44_linear_29_9469)"/>
<path d="M151.059 338.453V318.963H-79.2109V317.159H153.825V336.558H210.075C210.602 335.114 212.578 334.032 214.818 334.032C217.716 334.032 219.955 335.566 219.955 337.46C219.955 339.445 217.716 340.979 214.818 340.979C212.578 340.979 210.602 339.897 210.075 338.453H151.059Z" fill="url(#paint45_linear_29_9469)"/>
<path d="M161.993 330.874V311.474H-84.7432V309.67H164.628V329.069H226.806C227.465 327.535 229.441 326.452 231.68 326.452C234.578 326.452 236.818 328.076 236.818 329.971C236.818 331.866 234.578 333.4 231.68 333.4C229.441 333.4 227.465 332.317 226.806 330.874H161.993Z" fill="url(#paint46_linear_29_9469)"/>
<path d="M174.64 322.482V303.083H-89.3535V301.278H177.406V320.678H238.926C239.584 319.144 241.56 318.061 243.8 318.061C246.698 318.061 248.937 319.685 248.937 321.58C248.937 323.475 246.698 325.009 243.8 325.009C241.56 325.009 239.584 323.926 238.926 322.482H174.64Z" fill="url(#paint47_linear_29_9469)"/>
<path d="M208.496 313.549V294.15H-16.373V292.345H211.13V311.745H306.11V294.15H232.076V301.459H274.626C275.284 300.015 277.26 298.932 279.5 298.932C282.398 298.932 284.637 300.466 284.637 302.451C284.637 304.346 282.398 305.88 279.5 305.88C277.26 305.88 275.284 304.797 274.626 303.353H229.309V292.345H308.876V313.549H208.496Z" fill="url(#paint48_linear_29_9469)"/>
<path d="M669.298 382.305C672.064 382.305 674.304 383.929 674.304 385.824C674.304 387.719 672.064 389.252 669.298 389.252C666.927 389.252 664.951 388.17 664.424 386.726H590.39L558.115 408.832L461.423 408.832V389.433H42.7744V387.538H464.057V406.938L557.061 406.938L589.204 384.921H664.424C664.951 383.387 666.927 382.305 669.298 382.305Z" fill="url(#paint49_linear_29_9469)"/>
<path d="M428.226 425.254C430.992 425.254 433.232 426.788 433.232 428.683C433.232 430.578 430.992 432.202 428.226 432.202C425.855 432.202 423.879 431.119 423.352 429.585L291.355 429.585L259.08 451.692H128.796V432.292H-101.605V430.397H131.431V449.887H258.026L290.301 427.781L423.352 427.781C423.879 426.337 425.855 425.254 428.226 425.254Z" fill="url(#paint50_linear_29_9469)"/>
<path d="M393.712 422.096L285.823 422.096L253.548 444.203H139.73V424.803H-107.138V422.908H142.365V442.308H252.494L284.769 420.201L393.712 420.201C394.239 418.758 396.215 417.675 398.586 417.675C401.353 417.675 403.592 419.209 403.592 421.194C403.592 423.089 401.353 424.623 398.586 424.623C396.215 424.623 394.239 423.54 393.712 422.096Z" fill="url(#paint51_linear_29_9469)"/>
<path d="M152.376 435.811V416.412H-111.617V414.517H155.011V433.916H248.015L280.289 411.81H367.628C368.287 410.366 370.131 409.284 372.503 409.284C375.269 409.284 377.508 410.817 377.508 412.803C377.508 414.697 375.269 416.231 372.503 416.231C370.131 416.231 368.287 415.149 367.628 413.705H281.343L249.069 435.811H152.376Z" fill="url(#paint52_linear_29_9469)"/>
<path d="M469.458 135.886C472.225 135.886 474.464 137.42 474.464 139.405C474.464 141.3 472.225 142.834 469.458 142.834C467.087 142.834 465.111 141.751 464.584 140.308L373.425 140.308L341.15 162.414H161.466V217.274L-179.064 217.274V215.379L158.831 215.379V160.519H340.096L372.371 138.503L464.584 138.503C465.111 136.969 467.087 135.886 469.458 135.886Z" fill="url(#paint53_linear_29_9469)"/>
<path d="M446.8 128.397C449.567 128.397 451.938 129.931 451.938 131.826C451.938 133.811 449.567 135.345 446.8 135.345C444.561 135.345 442.585 134.262 441.926 132.819L367.892 132.819L335.617 154.835H149.083V209.695L-179.064 209.695V207.89L146.448 207.89V153.03H334.563L366.838 130.924L441.926 130.924C442.585 129.48 444.561 128.397 446.8 128.397Z" fill="url(#paint54_linear_29_9469)"/>
<path d="M358.671 117.389C361.569 117.389 363.808 118.923 363.808 120.908C363.808 122.803 361.569 124.337 358.671 124.337C356.431 124.337 354.455 123.254 353.797 121.811H262.769L230.494 143.917L100.21 143.917V124.427L-130.191 124.427V122.623L102.845 122.623V142.022L229.44 142.022L261.583 119.916H353.797C354.455 118.472 356.431 117.389 358.671 117.389Z" fill="url(#paint55_linear_29_9469)"/>
<path d="M336.144 109.9C338.91 109.9 341.15 111.434 341.15 113.329C341.15 115.224 338.91 116.848 336.144 116.848C333.773 116.848 331.928 115.765 331.27 114.231H257.236L224.961 136.338H111.012V116.938L-135.725 116.938V115.134L113.778 115.134V134.533H223.907L256.182 112.427H331.27C331.928 110.983 333.773 109.9 336.144 109.9Z" fill="url(#paint56_linear_29_9469)"/>
<path d="M331.665 101.509C334.432 101.509 336.671 103.043 336.671 104.938C336.671 106.832 334.432 108.457 331.665 108.457C329.294 108.457 327.45 107.374 326.791 105.84H252.757L220.483 127.946L123.79 127.946V108.547L-140.203 108.547V106.742L126.425 106.742V126.142L219.429 126.142L251.572 104.035H326.791C327.45 102.592 329.294 101.509 331.665 101.509Z" fill="url(#paint57_linear_29_9469)"/>
<path d="M98.2345 203.018C95.4681 203.018 93.2287 201.484 93.2287 199.499C93.2287 197.965 94.8094 196.611 96.9172 196.25V179.738H53.9722L21.8292 201.845L-108.587 201.845V182.445H-338.856V180.55H-105.82V199.95L20.6436 199.95L52.9183 177.843H99.5518V196.25C101.791 196.611 103.372 197.965 103.372 199.499C103.372 201.484 101.001 203.018 98.2345 203.018Z" fill="url(#paint58_linear_29_9469)"/>
<path d="M-97.6523 194.265V174.866H-344.389V173.061H-95.0176V192.461H15.1114L47.386 170.354H115.229V182.716C117.336 183.077 118.917 184.43 118.917 185.964C118.917 187.949 116.678 189.483 113.911 189.483C111.013 189.483 108.774 187.949 108.774 185.964C108.774 184.43 110.355 183.077 112.594 182.716V172.159H48.4399L16.297 194.265H-97.6523Z" fill="url(#paint59_linear_29_9469)"/>
<path d="M-85.0065 185.874V166.474L-349 166.474V164.67L-82.2401 164.67V184.069H10.6318L42.9065 161.963H128.533C129.192 160.519 131.036 159.437 133.407 159.437C136.174 159.437 138.545 160.97 138.545 162.865C138.545 164.76 136.174 166.384 133.407 166.384C131.168 166.384 129.192 165.302 128.533 163.768H43.9604L11.8174 185.874H-85.0065Z" fill="url(#paint60_linear_29_9469)"/>
<path d="M86.9058 128.758V150.053L-13.475 150.053V130.563H-238.212V128.758H-10.7086V148.158L84.2711 148.158V130.563L10.1053 130.563V137.962H52.7868C53.3138 136.428 55.2898 135.345 57.661 135.345C60.4274 135.345 62.6668 136.969 62.6668 138.864C62.6668 140.759 60.4274 142.293 57.661 142.293C55.2898 142.293 53.3138 141.21 52.7868 139.766L7.4706 139.766V128.758L86.9058 128.758Z" fill="url(#paint61_linear_29_9469)"/>
<path d="M344.971 258.329L377.245 236.222H474.596C474.684 236.102 474.728 236.012 474.728 235.952C474.86 235.32 477.758 233.786 480.129 235.591C480.392 235.771 480.919 236.764 480.919 237.215C480.919 237.846 480.524 238.478 480.261 238.658C477.494 240.824 474.991 239.019 474.728 238.027C474.728 237.907 474.728 237.907 474.728 238.027H378.299L346.024 260.133L219.429 260.133V243.26L48.1756 243.26L23.9366 261.216H-54.7081V241.546H-174.058C-174.717 243.08 -176.561 244.162 -178.933 244.162C-181.699 244.162 -183.938 242.538 -183.938 240.644C-183.938 238.749 -181.699 237.215 -178.933 237.215C-176.561 237.215 -174.717 238.298 -174.058 239.741H-51.9417V259.321H22.751L46.9899 241.456L222.063 241.456V258.329L344.971 258.329Z" fill="url(#paint62_linear_29_9469)"/>
<path d="M344.708 250.749L376.982 228.733L461.95 228.733V230.538L378.036 230.538L345.761 252.644H231.944V233.245H41.1941L12.608 252.644L-41.5344 252.644V233.154H-218.452C-219.111 234.688 -221.087 235.771 -223.326 235.771C-226.093 235.771 -228.464 234.147 -228.464 232.252C-228.464 230.357 -226.093 228.823 -223.326 228.823C-221.087 228.823 -219.111 229.906 -218.452 231.35H-38.768V250.749L11.5541 250.749L40.1403 231.35H234.579V250.749H344.708Z" fill="url(#paint63_linear_29_9469)"/>
<path d="M447.327 218.808C450.094 218.808 452.465 220.342 452.465 222.237C452.465 224.131 450.094 225.756 447.327 225.756C444.956 225.756 443.112 224.673 442.453 223.139H368.419L336.144 245.245H239.452V225.846L-179.064 225.846V224.041L242.087 224.041V243.441H335.09L367.365 221.334H442.453C443.112 219.891 444.956 218.808 447.327 218.808Z" fill="url(#paint64_linear_29_9469)"/>
<path d="M206.256 261.667C209.022 261.667 211.262 263.201 211.262 265.096C211.262 267.081 209.022 268.615 206.256 268.615C203.885 268.615 202.041 267.532 201.382 266.088L69.3852 266.088L63.3255 270.239L348.396 270.239V289.638H441.268L473.543 267.622H548.763C549.289 266.088 551.266 265.006 553.637 265.006C556.403 265.006 558.643 266.63 558.643 268.525C558.643 270.419 556.403 271.953 553.637 271.953C551.266 271.953 549.289 270.871 548.763 269.427H474.729L442.454 291.533H345.63V272.134L60.5591 272.134L51.0743 278.63L335.75 278.63V298.03H445.747L478.022 276.014H553.242C553.768 274.48 555.744 273.487 558.116 273.487C560.882 273.487 563.122 275.021 563.122 276.916C563.122 278.811 560.882 280.345 558.116 280.345C555.744 280.345 553.768 279.262 553.242 277.818H479.207L446.933 299.925H332.983V280.525L48.3079 280.525L40.0087 286.21L324.816 286.21V305.609H451.28L483.555 283.503H575.768C576.427 282.059 578.271 280.976 580.642 280.976C583.408 280.976 585.648 282.51 585.648 284.405C585.648 286.39 583.408 287.924 580.642 287.924C578.271 287.924 576.427 286.841 575.768 285.398H484.74L452.466 307.414H322.05V288.014L37.374 288.014L37.2423 288.105H-93.1736V268.705H-323.443V266.9H-90.4072V286.3H36.0567L68.3314 264.194L201.382 264.194C202.041 262.75 203.885 261.667 206.256 261.667Z" fill="url(#paint65_linear_29_9469)"/>
<path d="M171.742 258.509L63.8521 258.509L31.7091 280.615H-82.2402V261.216H-328.977V259.321H-79.6055V278.811H30.5235L62.7982 256.705L171.742 256.705C172.4 255.261 174.244 254.178 176.616 254.178C179.382 254.178 181.622 255.712 181.622 257.607C181.622 259.502 179.382 261.036 176.616 261.036C174.244 261.036 172.4 259.953 171.742 258.509Z" fill="url(#paint66_linear_29_9469)"/>
<path d="M-69.5934 272.224V252.825L-333.455 252.825V250.93L-66.8269 250.93V270.329H26.045L58.3197 248.313H145.659C146.318 246.869 148.293 245.696 150.533 245.696C153.431 245.696 155.671 247.321 155.671 249.215C155.671 251.11 153.431 252.644 150.533 252.644C148.293 252.644 146.318 251.561 145.659 250.118H59.3735L27.2306 272.224H-69.5934Z" fill="url(#paint67_linear_29_9469)"/>
<path d="M438.238 15.8805C441.004 15.8805 443.244 17.4144 443.244 19.3995C443.244 21.2943 441.004 22.8282 438.238 22.8282C435.867 22.8282 433.891 21.7455 433.364 20.3018L342.336 20.3018L323.762 33.0242L402.67 33.0242C403.197 31.4903 405.173 30.4075 407.544 30.4075C410.311 30.4075 412.55 32.0317 412.55 33.9265C412.55 35.8213 410.311 37.3552 407.544 37.3552C405.173 37.3552 403.197 36.2725 402.67 34.8288L320.995 34.8288L312.696 40.5133L360.252 40.5133C360.779 39.0696 362.755 37.9868 365.126 37.9868C367.893 37.9868 370.132 39.5207 370.132 41.4156C370.132 43.3104 367.893 44.9346 365.126 44.9346C362.755 44.9346 360.779 43.8518 360.252 42.3179L310.062 42.3179H273.44L179.646 42.3179V22.9184L-50.624 22.9184V21.1138L182.412 21.1138V40.5133L273.44 40.5133H308.876L341.151 18.4069L433.364 18.4069C434.023 16.9632 435.867 15.8805 438.238 15.8805Z" fill="url(#paint68_linear_29_9469)"/>
<path d="M415.711 8.3914C418.478 8.3914 420.717 9.9253 420.717 11.8201C420.717 13.715 418.478 15.3391 415.711 15.3391C413.34 15.3391 411.364 14.2563 410.837 12.7224L336.803 12.7224L304.528 34.8288L190.579 34.8288V15.4293L-56.1572 15.4293V13.6247L193.346 13.6247V33.0242L303.343 33.0242L335.617 10.9178L410.837 10.9178C411.364 9.47415 413.34 8.3914 415.711 8.3914Z" fill="url(#paint69_linear_29_9469)"/>
<path d="M411.101 -1.90735e-05C413.999 -1.90735e-05 416.239 1.53388 416.239 3.42871C416.239 5.32354 413.999 6.94765 411.101 6.94765C408.862 6.94765 406.886 5.86492 406.359 4.33101L332.193 4.33101L300.05 26.4374L203.226 26.4374V7.03791L-60.6357 7.03791V5.14305L205.992 5.14305V24.6328L298.864 24.6328L331.139 2.52641L406.359 2.52641C406.886 1.08273 408.862 -1.90735e-05 411.101 -1.90735e-05Z" fill="url(#paint70_linear_29_9469)"/>
<path d="M133.538 78.2294L101.264 100.246L-29.0204 100.246V80.8461L-259.422 80.8461V79.0415L-26.3857 79.0415V98.441L100.21 98.441L132.353 76.3346H179.118V111.705C181.226 112.066 182.807 113.419 182.807 115.043C182.807 116.938 180.567 118.472 177.801 118.472C175.034 118.472 172.663 116.938 172.663 115.043C172.663 113.419 174.244 112.066 176.483 111.705V78.2294H133.538Z" fill="url(#paint71_linear_29_9469)"/>
<path d="M94.6767 90.9519L126.951 68.8455H194.794V98.1703C196.902 98.5312 198.483 99.8847 198.483 101.509C198.483 103.404 196.243 104.938 193.345 104.938C190.579 104.938 188.339 103.404 188.339 101.509C188.339 99.8847 189.92 98.5312 192.028 98.1703V70.6501H128.005L95.7306 92.7565L-18.2187 92.7565V73.357L-264.955 73.357V71.5524L-15.4523 71.5524V90.9519L94.6767 90.9519Z" fill="url(#paint72_linear_29_9469)"/>
<path d="M246.17 57.9276C248.937 57.9276 251.308 59.4616 251.308 61.3564C251.308 63.2512 248.937 64.8753 246.17 64.8753C243.931 64.8753 241.955 63.7926 241.296 62.2587H123.527L91.2521 84.3651L-5.44016 84.3651V64.9656L-269.434 64.9656V63.161L-2.80548 63.161V82.5605L90.1982 82.5605L122.341 60.4541H241.296C241.955 59.0104 243.931 57.9276 246.17 57.9276Z" fill="url(#paint73_linear_29_9469)"/>
<path d="M8.65541 73.3571V53.9576L-221.746 53.9576V52.0627L11.4218 52.0627V71.4622H67.5402C68.1989 70.0185 70.1748 68.9358 72.4143 68.9358C75.3124 68.9358 77.5519 70.4697 77.5519 72.3645C77.5519 74.3496 75.3124 75.8835 72.4143 75.8835C70.1748 75.8835 68.1989 74.8007 67.5402 73.3571H8.65541Z" fill="url(#paint74_linear_29_9469)"/>
<path d="M19.5899 65.7777V46.3782L-227.146 46.3782V44.5736L22.2246 44.5736V63.9731L84.4026 63.9731C85.0613 62.5294 87.0373 61.4466 89.2768 61.4466C92.0432 61.4466 94.4144 62.9805 94.4144 64.8754C94.4144 66.7702 92.0432 68.3943 89.2768 68.3943C87.0373 68.3943 85.0613 67.3116 84.4026 65.7777H19.5899Z" fill="url(#paint75_linear_29_9469)"/>
<path d="M101.396 53.0553C104.294 53.0553 106.533 54.5892 106.533 56.484C106.533 58.3788 104.294 59.9127 101.396 59.9127C99.1561 59.9127 97.1801 58.83 96.5215 57.3863L32.2356 57.3863V37.9868L-231.758 37.9868V36.1822L35.002 36.1822V55.5817L96.5215 55.5817C97.1801 54.138 99.1561 53.0553 101.396 53.0553Z" fill="url(#paint76_linear_29_9469)"/>
<path d="M166.472 27.2494V48.4535L66.0913 48.4535V29.054L-158.777 29.054V27.2494L68.726 27.2494V46.6489L163.706 46.6489V29.054L89.6716 29.054V36.3627H132.221C132.88 34.919 134.856 33.8363 137.096 33.8363C139.862 33.8363 142.233 35.3701 142.233 37.3552C142.233 39.25 139.862 40.7839 137.096 40.7839C134.856 40.7839 132.88 39.7012 132.221 38.2575H86.9052V27.2494L166.472 27.2494Z" fill="url(#paint77_linear_29_9469)"/>
<defs>
<linearGradient id="paint0_linear_29_9469" x1="843.187" y1="821.815" x2="-287.071" y2="827.2" gradientUnits="userSpaceOnUse">
<stop stop-color="white"/>
<stop offset="0.3" stop-color="#B8B7B7"/>
<stop offset="0.7" stop-color="#706E6E"/>
<stop offset="0.8" stop-color="#575454"/>
<stop offset="1"/>
</linearGradient>
<linearGradient id="paint1_linear_29_9469" x1="-149.16" y1="792.942" x2="1026.01" y2="735.892" gradientUnits="userSpaceOnUse">
<stop stop-color="white"/>
<stop offset="0.3" stop-color="#B8B7B7"/>
<stop offset="0.7" stop-color="#706E6E"/>
<stop offset="0.8" stop-color="#575454"/>
<stop offset="1"/>
</linearGradient>
<linearGradient id="paint2_linear_29_9469" x1="843.054" y1="804.491" x2="-287.072" y2="809.876" gradientUnits="userSpaceOnUse">
<stop stop-color="white"/>
<stop offset="0.3" stop-color="#B8B7B7"/>
<stop offset="0.7" stop-color="#706E6E"/>
<stop offset="0.8" stop-color="#575454"/>
<stop offset="1"/>
</linearGradient>
<linearGradient id="paint3_linear_29_9469" x1="557.062" y1="798.356" x2="-433.604" y2="784.702" gradientUnits="userSpaceOnUse">
<stop stop-color="white"/>
<stop offset="0.3" stop-color="#B8B7B7"/>
<stop offset="0.7" stop-color="#706E6E"/>
<stop offset="0.8" stop-color="#575454"/>
<stop offset="1"/>
</linearGradient>
<linearGradient id="paint4_linear_29_9469" x1="842.923" y1="788.43" x2="-287.202" y2="794.008" gradientUnits="userSpaceOnUse">
<stop stop-color="white"/>
<stop offset="0.3" stop-color="#B8B7B7"/>
<stop offset="0.7" stop-color="#706E6E"/>
<stop offset="0.8" stop-color="#575454"/>
<stop offset="1"/>
</linearGradient>
<linearGradient id="paint5_linear_29_9469" x1="557.326" y1="782.204" x2="-433.475" y2="768.743" gradientUnits="userSpaceOnUse">
<stop stop-color="white"/>
<stop offset="0.3" stop-color="#B8B7B7"/>
<stop offset="0.7" stop-color="#706E6E"/>
<stop offset="0.8" stop-color="#575454"/>
<stop offset="1"/>
</linearGradient>
<linearGradient id="paint6_linear_29_9469" x1="557.456" y1="771.016" x2="-433.209" y2="757.362" gradientUnits="userSpaceOnUse">
<stop stop-color="white"/>
<stop offset="0.3" stop-color="#B8B7B7"/>
<stop offset="0.7" stop-color="#706E6E"/>
<stop offset="0.8" stop-color="#575454"/>
<stop offset="1"/>
</linearGradient>
<linearGradient id="paint7_linear_29_9469" x1="555.482" y1="909.609" x2="-435.185" y2="895.955" gradientUnits="userSpaceOnUse">
<stop stop-color="white"/>
<stop offset="0.3" stop-color="#B8B7B7"/>
<stop offset="0.7" stop-color="#706E6E"/>
<stop offset="0.8" stop-color="#575454"/>
<stop offset="1"/>
</linearGradient>
<linearGradient id="paint8_linear_29_9469" x1="-144.946" y1="879.472" x2="1030.24" y2="822.614" gradientUnits="userSpaceOnUse">
<stop stop-color="white"/>
<stop offset="0.3" stop-color="#B8B7B7"/>
<stop offset="0.7" stop-color="#706E6E"/>
<stop offset="0.8" stop-color="#575454"/>
<stop offset="1"/>
</linearGradient>
<linearGradient id="paint9_linear_29_9469" x1="-145.34" y1="870.991" x2="1029.84" y2="814.133" gradientUnits="userSpaceOnUse">
<stop stop-color="white"/>
<stop offset="0.3" stop-color="#B8B7B7"/>
<stop offset="0.7" stop-color="#706E6E"/>
<stop offset="0.8" stop-color="#575454"/>
<stop offset="1"/>
</linearGradient>
<linearGradient id="paint10_linear_29_9469" x1="-158.25" y1="605.805" x2="1017.06" y2="548.946" gradientUnits="userSpaceOnUse">
<stop stop-color="white"/>
<stop offset="0.3" stop-color="#B8B7B7"/>
<stop offset="0.7" stop-color="#706E6E"/>
<stop offset="0.8" stop-color="#575454"/>
<stop offset="1"/>
</linearGradient>
<linearGradient id="paint11_linear_29_9469" x1="-167.999" y1="403.689" x2="1007.18" y2="346.831" gradientUnits="userSpaceOnUse">
<stop stop-color="white"/>
<stop offset="0.3" stop-color="#B8B7B7"/>
<stop offset="0.7" stop-color="#706E6E"/>
<stop offset="0.8" stop-color="#575454"/>
<stop offset="1"/>
</linearGradient>
<linearGradient id="paint12_linear_29_9469" x1="841.209" y1="417.404" x2="-289.048" y2="422.789" gradientUnits="userSpaceOnUse">
<stop stop-color="white"/>
<stop offset="0.3" stop-color="#B8B7B7"/>
<stop offset="0.7" stop-color="#706E6E"/>
<stop offset="0.8" stop-color="#575454"/>
<stop offset="1"/>
</linearGradient>
<linearGradient id="paint13_linear_29_9469" x1="-158.645" y1="597.774" x2="1016.67" y2="540.916" gradientUnits="userSpaceOnUse">
<stop stop-color="white"/>
<stop offset="0.3" stop-color="#B8B7B7"/>
<stop offset="0.7" stop-color="#706E6E"/>
<stop offset="0.8" stop-color="#575454"/>
<stop offset="1"/>
</linearGradient>
<linearGradient id="paint14_linear_29_9469" x1="842.132" y1="598.947" x2="-288.126" y2="604.332" gradientUnits="userSpaceOnUse">
<stop stop-color="white"/>
<stop offset="0.3" stop-color="#B8B7B7"/>
<stop offset="0.7" stop-color="#706E6E"/>
<stop offset="0.8" stop-color="#575454"/>
<stop offset="1"/>
</linearGradient>
<linearGradient id="paint15_linear_29_9469" x1="559.827" y1="594.436" x2="-430.838" y2="580.782" gradientUnits="userSpaceOnUse">
<stop stop-color="white"/>
<stop offset="0.3" stop-color="#B8B7B7"/>
<stop offset="0.7" stop-color="#706E6E"/>
<stop offset="0.8" stop-color="#575454"/>
<stop offset="1"/>
</linearGradient>
<linearGradient id="paint16_linear_29_9469" x1="559.96" y1="585.954" x2="-430.706" y2="572.3" gradientUnits="userSpaceOnUse">
<stop stop-color="white"/>
<stop offset="0.3" stop-color="#B8B7B7"/>
<stop offset="0.7" stop-color="#706E6E"/>
<stop offset="0.8" stop-color="#575454"/>
<stop offset="1"/>
</linearGradient>
<linearGradient id="paint17_linear_29_9469" x1="-156.933" y1="632.152" x2="1018.24" y2="575.102" gradientUnits="userSpaceOnUse">
<stop stop-color="white"/>
<stop offset="0.3" stop-color="#B8B7B7"/>
<stop offset="0.7" stop-color="#706E6E"/>
<stop offset="0.8" stop-color="#575454"/>
<stop offset="1"/>
</linearGradient>
<linearGradient id="paint18_linear_29_9469" x1="559.037" y1="653.717" x2="-431.629" y2="640.063" gradientUnits="userSpaceOnUse">
<stop stop-color="white"/>
<stop offset="0.3" stop-color="#B8B7B7"/>
<stop offset="0.7" stop-color="#706E6E"/>
<stop offset="0.8" stop-color="#575454"/>
<stop offset="1"/>
</linearGradient>
<linearGradient id="paint19_linear_29_9469" x1="559.169" y1="645.235" x2="-431.497" y2="631.581" gradientUnits="userSpaceOnUse">
<stop stop-color="white"/>
<stop offset="0.3" stop-color="#B8B7B7"/>
<stop offset="0.7" stop-color="#706E6E"/>
<stop offset="0.8" stop-color="#575454"/>
<stop offset="1"/>
</linearGradient>
<linearGradient id="paint20_linear_29_9469" x1="559.301" y1="636.212" x2="-431.367" y2="622.751" gradientUnits="userSpaceOnUse">
<stop stop-color="white"/>
<stop offset="0.3" stop-color="#B8B7B7"/>
<stop offset="0.7" stop-color="#706E6E"/>
<stop offset="0.8" stop-color="#575454"/>
<stop offset="1"/>
</linearGradient>
<linearGradient id="paint21_linear_29_9469" x1="559.432" y1="628.633" x2="-431.366" y2="614.979" gradientUnits="userSpaceOnUse">
<stop stop-color="white"/>
<stop offset="0.3" stop-color="#B8B7B7"/>
<stop offset="0.7" stop-color="#706E6E"/>
<stop offset="0.8" stop-color="#575454"/>
<stop offset="1"/>
</linearGradient>
<linearGradient id="paint22_linear_29_9469" x1="-159.04" y1="589.924" x2="1016.27" y2="533.066" gradientUnits="userSpaceOnUse">
<stop stop-color="white"/>
<stop offset="0.3" stop-color="#B8B7B7"/>
<stop offset="0.7" stop-color="#706E6E"/>
<stop offset="0.8" stop-color="#575454"/>
<stop offset="1"/>
</linearGradient>
<linearGradient id="paint23_linear_29_9469" x1="559.697" y1="608.872" x2="-431.101" y2="595.219" gradientUnits="userSpaceOnUse">
<stop stop-color="white"/>
<stop offset="0.3" stop-color="#B8B7B7"/>
<stop offset="0.7" stop-color="#706E6E"/>
<stop offset="0.8" stop-color="#575454"/>
<stop offset="1"/>
</linearGradient>
<linearGradient id="paint24_linear_29_9469" x1="-154.035" y1="692.245" x2="1021.15" y2="635.387" gradientUnits="userSpaceOnUse">
<stop stop-color="white"/>
<stop offset="0.3" stop-color="#B8B7B7"/>
<stop offset="0.7" stop-color="#706E6E"/>
<stop offset="0.8" stop-color="#575454"/>
<stop offset="1"/>
</linearGradient>
<linearGradient id="paint25_linear_29_9469" x1="-154.43" y1="682.861" x2="1020.75" y2="626.003" gradientUnits="userSpaceOnUse">
<stop stop-color="white"/>
<stop offset="0.3" stop-color="#B8B7B7"/>
<stop offset="0.7" stop-color="#706E6E"/>
<stop offset="0.8" stop-color="#575454"/>
<stop offset="1"/>
</linearGradient>
<linearGradient id="paint26_linear_29_9469" x1="751.368" y1="703.704" x2="-239.433" y2="690.243" gradientUnits="userSpaceOnUse">
<stop stop-color="white"/>
<stop offset="0.3" stop-color="#B8B7B7"/>
<stop offset="0.7" stop-color="#706E6E"/>
<stop offset="0.8" stop-color="#575454"/>
<stop offset="1"/>
</linearGradient>
<linearGradient id="paint27_linear_29_9469" x1="557.72" y1="747.466" x2="-432.949" y2="734.004" gradientUnits="userSpaceOnUse">
<stop stop-color="white"/>
<stop offset="0.3" stop-color="#B8B7B7"/>
<stop offset="0.7" stop-color="#706E6E"/>
<stop offset="0.8" stop-color="#575454"/>
<stop offset="1"/>
</linearGradient>
<linearGradient id="paint28_linear_29_9469" x1="842.79" y1="735.195" x2="-287.468" y2="740.58" gradientUnits="userSpaceOnUse">
<stop stop-color="white"/>
<stop offset="0.3" stop-color="#B8B7B7"/>
<stop offset="0.7" stop-color="#706E6E"/>
<stop offset="0.8" stop-color="#575454"/>
<stop offset="1"/>
</linearGradient>
<linearGradient id="paint29_linear_29_9469" x1="842.659" y1="726.803" x2="-287.467" y2="732.188" gradientUnits="userSpaceOnUse">
<stop stop-color="white"/>
<stop offset="0.3" stop-color="#B8B7B7"/>
<stop offset="0.7" stop-color="#706E6E"/>
<stop offset="0.8" stop-color="#575454"/>
<stop offset="1"/>
</linearGradient>
<linearGradient id="paint30_linear_29_9469" x1="877.569" y1="497.438" x2="-411.557" y2="503.785" gradientUnits="userSpaceOnUse">
<stop stop-color="white"/>
<stop offset="0.3" stop-color="#B8B7B7"/>
<stop offset="0.7" stop-color="#706E6E"/>
<stop offset="0.8" stop-color="#575454"/>
<stop offset="1"/>
</linearGradient>
<linearGradient id="paint31_linear_29_9469" x1="-270.619" y1="472.535" x2="1075.74" y2="407.417" gradientUnits="userSpaceOnUse">
<stop stop-color="white"/>
<stop offset="0.3" stop-color="#B8B7B7"/>
<stop offset="0.7" stop-color="#706E6E"/>
<stop offset="0.8" stop-color="#575454"/>
<stop offset="1"/>
</linearGradient>
<linearGradient id="paint32_linear_29_9469" x1="882.706" y1="481.558" x2="-412.085" y2="487.712" gradientUnits="userSpaceOnUse">
<stop stop-color="white"/>
<stop offset="0.3" stop-color="#B8B7B7"/>
<stop offset="0.7" stop-color="#706E6E"/>
<stop offset="0.8" stop-color="#575454"/>
<stop offset="1"/>
</linearGradient>
<linearGradient id="paint33_linear_29_9469" x1="560.091" y1="576.119" x2="-430.578" y2="562.657" gradientUnits="userSpaceOnUse">
<stop stop-color="white"/>
<stop offset="0.3" stop-color="#B8B7B7"/>
<stop offset="0.7" stop-color="#706E6E"/>
<stop offset="0.8" stop-color="#575454"/>
<stop offset="1"/>
</linearGradient>
<linearGradient id="paint34_linear_29_9469" x1="841.869" y1="559.877" x2="-288.257" y2="565.263" gradientUnits="userSpaceOnUse">
<stop stop-color="white"/>
<stop offset="0.3" stop-color="#B8B7B7"/>
<stop offset="0.7" stop-color="#706E6E"/>
<stop offset="0.8" stop-color="#575454"/>
<stop offset="1"/>
</linearGradient>
<linearGradient id="paint35_linear_29_9469" x1="-162.597" y1="516.387" x2="1012.72" y2="459.528" gradientUnits="userSpaceOnUse">
<stop stop-color="white"/>
<stop offset="0.3" stop-color="#B8B7B7"/>
<stop offset="0.7" stop-color="#706E6E"/>
<stop offset="0.8" stop-color="#575454"/>
<stop offset="1"/>
</linearGradient>
<linearGradient id="paint36_linear_29_9469" x1="-162.993" y1="506.461" x2="1012.18" y2="449.412" gradientUnits="userSpaceOnUse">
<stop stop-color="white"/>
<stop offset="0.3" stop-color="#B8B7B7"/>
<stop offset="0.7" stop-color="#706E6E"/>
<stop offset="0.8" stop-color="#575454"/>
<stop offset="1"/>
</linearGradient>
<linearGradient id="paint37_linear_29_9469" x1="-163.388" y1="498.792" x2="1011.79" y2="441.934" gradientUnits="userSpaceOnUse">
<stop stop-color="white"/>
<stop offset="0.3" stop-color="#B8B7B7"/>
<stop offset="0.7" stop-color="#706E6E"/>
<stop offset="0.8" stop-color="#575454"/>
<stop offset="1"/>
</linearGradient>
<linearGradient id="paint38_linear_29_9469" x1="-163.783" y1="490.31" x2="1011.4" y2="433.452" gradientUnits="userSpaceOnUse">
<stop stop-color="white"/>
<stop offset="0.3" stop-color="#B8B7B7"/>
<stop offset="0.7" stop-color="#706E6E"/>
<stop offset="0.8" stop-color="#575454"/>
<stop offset="1"/>
</linearGradient>
<linearGradient id="paint39_linear_29_9469" x1="-164.178" y1="483.092" x2="1011.13" y2="426.042" gradientUnits="userSpaceOnUse">
<stop stop-color="white"/>
<stop offset="0.3" stop-color="#B8B7B7"/>
<stop offset="0.7" stop-color="#706E6E"/>
<stop offset="0.8" stop-color="#575454"/>
<stop offset="1"/>
</linearGradient>
<linearGradient id="paint40_linear_29_9469" x1="731.081" y1="386.997" x2="-547.132" y2="369.497" gradientUnits="userSpaceOnUse">
<stop stop-color="white"/>
<stop offset="0.6" stop-color="#B8B7B7"/>
<stop offset="0.7" stop-color="#706E6E"/>
<stop offset="0.8" stop-color="#575454"/>
<stop offset="1"/>
</linearGradient>
<linearGradient id="paint41_linear_29_9469" x1="840.946" y1="374.004" x2="-289.18" y2="379.389" gradientUnits="userSpaceOnUse">
<stop stop-color="white"/>
<stop offset="0.3" stop-color="#B8B7B7"/>
<stop offset="0.7" stop-color="#706E6E"/>
<stop offset="0.8" stop-color="#575454"/>
<stop offset="1"/>
</linearGradient>
<linearGradient id="paint42_linear_29_9469" x1="-170.896" y1="343.506" x2="1004.29" y2="286.648" gradientUnits="userSpaceOnUse">
<stop stop-color="white"/>
<stop offset="0.3" stop-color="#B8B7B7"/>
<stop offset="0.7" stop-color="#706E6E"/>
<stop offset="0.8" stop-color="#575454"/>
<stop offset="1"/>
</linearGradient>
<linearGradient id="paint43_linear_29_9469" x1="574.45" y1="359.386" x2="-1040.86" y2="362.079" gradientUnits="userSpaceOnUse">
<stop stop-color="white"/>
<stop offset="0.3" stop-color="#B8B7B7"/>
<stop offset="0.7" stop-color="#706E6E"/>
<stop offset="0.8" stop-color="#575454"/>
<stop offset="1"/>
</linearGradient>
<linearGradient id="paint44_linear_29_9469" x1="-171.687" y1="327.445" x2="1003.49" y2="270.395" gradientUnits="userSpaceOnUse">
<stop stop-color="white"/>
<stop offset="0.3" stop-color="#B8B7B7"/>
<stop offset="0.7" stop-color="#706E6E"/>
<stop offset="0.8" stop-color="#575454"/>
<stop offset="1"/>
</linearGradient>
<linearGradient id="paint45_linear_29_9469" x1="563.252" y1="345.04" x2="-427.414" y2="331.386" gradientUnits="userSpaceOnUse">
<stop stop-color="white"/>
<stop offset="0.3" stop-color="#B8B7B7"/>
<stop offset="0.7" stop-color="#706E6E"/>
<stop offset="0.8" stop-color="#575454"/>
<stop offset="1"/>
</linearGradient>
<linearGradient id="paint46_linear_29_9469" x1="840.815" y1="333.851" x2="-289.443" y2="339.236" gradientUnits="userSpaceOnUse">
<stop stop-color="white"/>
<stop offset="0.3" stop-color="#B8B7B7"/>
<stop offset="0.7" stop-color="#706E6E"/>
<stop offset="0.8" stop-color="#575454"/>
<stop offset="1"/>
</linearGradient>
<linearGradient id="paint47_linear_29_9469" x1="840.815" y1="325.46" x2="-289.442" y2="331.037" gradientUnits="userSpaceOnUse">
<stop stop-color="white"/>
<stop offset="0.3" stop-color="#B8B7B7"/>
<stop offset="0.7" stop-color="#706E6E"/>
<stop offset="0.8" stop-color="#575454"/>
<stop offset="1"/>
</linearGradient>
<linearGradient id="paint48_linear_29_9469" x1="563.648" y1="317.7" x2="-427.017" y2="304.046" gradientUnits="userSpaceOnUse">
<stop stop-color="white"/>
<stop offset="0.3" stop-color="#B8B7B7"/>
<stop offset="0.7" stop-color="#706E6E"/>
<stop offset="0.8" stop-color="#575454"/>
<stop offset="1"/>
</linearGradient>
<linearGradient id="paint49_linear_29_9469" x1="-168.657" y1="390.516" x2="1006.66" y2="333.658" gradientUnits="userSpaceOnUse">
<stop stop-color="white"/>
<stop offset="0.3" stop-color="#B8B7B7"/>
<stop offset="0.7" stop-color="#706E6E"/>
<stop offset="0.8" stop-color="#575454"/>
<stop offset="1"/>
</linearGradient>
<linearGradient id="paint50_linear_29_9469" x1="-166.682" y1="430.127" x2="1008.5" y2="373.268" gradientUnits="userSpaceOnUse">
<stop stop-color="white"/>
<stop offset="0.3" stop-color="#B8B7B7"/>
<stop offset="0.7" stop-color="#706E6E"/>
<stop offset="0.8" stop-color="#575454"/>
<stop offset="1"/>
</linearGradient>
<linearGradient id="paint51_linear_29_9469" x1="841.342" y1="444.654" x2="-288.916" y2="450.039" gradientUnits="userSpaceOnUse">
<stop stop-color="white"/>
<stop offset="0.3" stop-color="#B8B7B7"/>
<stop offset="0.7" stop-color="#706E6E"/>
<stop offset="0.8" stop-color="#575454"/>
<stop offset="1"/>
</linearGradient>
<linearGradient id="paint52_linear_29_9469" x1="-167.472" y1="413.976" x2="1007.71" y2="357.117" gradientUnits="userSpaceOnUse">
<stop stop-color="white"/>
<stop offset="0.3" stop-color="#B8B7B7"/>
<stop offset="0.7" stop-color="#706E6E"/>
<stop offset="0.8" stop-color="#575454"/>
<stop offset="1"/>
</linearGradient>
<linearGradient id="paint53_linear_29_9469" x1="574.318" y1="218.718" x2="-1041.12" y2="221.41" gradientUnits="userSpaceOnUse">
<stop stop-color="white"/>
<stop offset="0.3" stop-color="#B8B7B7"/>
<stop offset="0.7" stop-color="#706E6E"/>
<stop offset="0.8" stop-color="#575454"/>
<stop offset="1"/>
</linearGradient>
<linearGradient id="paint54_linear_29_9469" x1="594.868" y1="210.507" x2="-535.389" y2="215.892" gradientUnits="userSpaceOnUse">
<stop stop-color="white"/>
<stop offset="0.3" stop-color="#B8B7B7"/>
<stop offset="0.7" stop-color="#706E6E"/>
<stop offset="0.8" stop-color="#575454"/>
<stop offset="1"/>
</linearGradient>
<linearGradient id="paint55_linear_29_9469" x1="566.019" y1="148.699" x2="-424.779" y2="135.045" gradientUnits="userSpaceOnUse">
<stop stop-color="white"/>
<stop offset="0.3" stop-color="#B8B7B7"/>
<stop offset="0.7" stop-color="#706E6E"/>
<stop offset="0.8" stop-color="#575454"/>
<stop offset="1"/>
</linearGradient>
<linearGradient id="paint56_linear_29_9469" x1="839.892" y1="136.789" x2="-290.366" y2="142.174" gradientUnits="userSpaceOnUse">
<stop stop-color="white"/>
<stop offset="0.3" stop-color="#B8B7B7"/>
<stop offset="0.7" stop-color="#706E6E"/>
<stop offset="0.8" stop-color="#575454"/>
<stop offset="1"/>
</linearGradient>
<linearGradient id="paint57_linear_29_9469" x1="574.055" y1="129.48" x2="-1041.26" y2="132.173" gradientUnits="userSpaceOnUse">
<stop stop-color="white"/>
<stop offset="0.3" stop-color="#B8B7B7"/>
<stop offset="0.7" stop-color="#706E6E"/>
<stop offset="0.8" stop-color="#575454"/>
<stop offset="1"/>
</linearGradient>
<linearGradient id="paint58_linear_29_9469" x1="840.156" y1="203.108" x2="-289.969" y2="208.685" gradientUnits="userSpaceOnUse">
<stop stop-color="white"/>
<stop offset="0.3" stop-color="#B8B7B7"/>
<stop offset="0.7" stop-color="#706E6E"/>
<stop offset="0.8" stop-color="#575454"/>
<stop offset="1"/>
</linearGradient>
<linearGradient id="paint59_linear_29_9469" x1="565.23" y1="200.311" x2="-425.439" y2="186.849" gradientUnits="userSpaceOnUse">
<stop stop-color="white"/>
<stop offset="0.3" stop-color="#B8B7B7"/>
<stop offset="0.7" stop-color="#706E6E"/>
<stop offset="0.8" stop-color="#575454"/>
<stop offset="1"/>
</linearGradient>
<linearGradient id="paint60_linear_29_9469" x1="-179.855" y1="158.985" x2="995.328" y2="102.127" gradientUnits="userSpaceOnUse">
<stop stop-color="white"/>
<stop offset="0.3" stop-color="#B8B7B7"/>
<stop offset="0.7" stop-color="#706E6E"/>
<stop offset="0.8" stop-color="#575454"/>
<stop offset="1"/>
</linearGradient>
<linearGradient id="paint61_linear_29_9469" x1="-181.435" y1="125.69" x2="993.738" y2="68.6408" gradientUnits="userSpaceOnUse">
<stop stop-color="white"/>
<stop offset="0.3" stop-color="#B8B7B7"/>
<stop offset="0.7" stop-color="#706E6E"/>
<stop offset="0.8" stop-color="#575454"/>
<stop offset="1"/>
</linearGradient>
<linearGradient id="paint62_linear_29_9469" x1="566.151" y1="266.901" x2="-426.887" y2="253.247" gradientUnits="userSpaceOnUse">
<stop stop-color="white"/>
<stop offset="0.3" stop-color="#B8B7B7"/>
<stop offset="0.7" stop-color="#706E6E"/>
<stop offset="0.8" stop-color="#575454"/>
<stop offset="1"/>
</linearGradient>
<linearGradient id="paint63_linear_29_9469" x1="-176.561" y1="225.846" x2="998.622" y2="168.988" gradientUnits="userSpaceOnUse">
<stop stop-color="white"/>
<stop offset="0.3" stop-color="#B8B7B7"/>
<stop offset="0.7" stop-color="#706E6E"/>
<stop offset="0.8" stop-color="#575454"/>
<stop offset="1"/>
</linearGradient>
<linearGradient id="paint64_linear_29_9469" x1="840.419" y1="245.967" x2="-289.838" y2="251.352" gradientUnits="userSpaceOnUse">
<stop stop-color="white"/>
<stop offset="0.3" stop-color="#B8B7B7"/>
<stop offset="0.7" stop-color="#706E6E"/>
<stop offset="0.8" stop-color="#575454"/>
<stop offset="1"/>
</linearGradient>
<linearGradient id="paint65_linear_29_9469" x1="760.59" y1="312.015" x2="-230.079" y2="298.554" gradientUnits="userSpaceOnUse">
<stop stop-color="white"/>
<stop offset="0.3" stop-color="#B8B7B7"/>
<stop offset="0.7" stop-color="#706E6E"/>
<stop offset="0.8" stop-color="#575454"/>
<stop offset="1"/>
</linearGradient>
<linearGradient id="paint66_linear_29_9469" x1="574.318" y1="281.969" x2="-1040.99" y2="284.661" gradientUnits="userSpaceOnUse">
<stop stop-color="white"/>
<stop offset="0.3" stop-color="#B8B7B7"/>
<stop offset="0.7" stop-color="#706E6E"/>
<stop offset="0.8" stop-color="#575454"/>
<stop offset="1"/>
</linearGradient>
<linearGradient id="paint67_linear_29_9469" x1="564.175" y1="278.089" x2="-426.491" y2="264.435" gradientUnits="userSpaceOnUse">
<stop stop-color="white"/>
<stop offset="0.3" stop-color="#B8B7B7"/>
<stop offset="0.7" stop-color="#706E6E"/>
<stop offset="0.8" stop-color="#575454"/>
<stop offset="1"/>
</linearGradient>
<linearGradient id="paint68_linear_29_9469" x1="-186.441" y1="22.3771" x2="988.742" y2="-34.4811" gradientUnits="userSpaceOnUse">
<stop stop-color="white"/>
<stop offset="0.3" stop-color="#B8B7B7"/>
<stop offset="0.7" stop-color="#706E6E"/>
<stop offset="0.8" stop-color="#575454"/>
<stop offset="1"/>
</linearGradient>
<linearGradient id="paint69_linear_29_9469" x1="839.365" y1="35.4604" x2="-290.761" y2="40.8455" gradientUnits="userSpaceOnUse">
<stop stop-color="white"/>
<stop offset="0.3" stop-color="#B8B7B7"/>
<stop offset="0.7" stop-color="#706E6E"/>
<stop offset="0.8" stop-color="#575454"/>
<stop offset="1"/>
</linearGradient>
<linearGradient id="paint70_linear_29_9469" x1="-187.231" y1="6.22584" x2="987.951" y2="-50.6323" gradientUnits="userSpaceOnUse">
<stop stop-color="white"/>
<stop offset="0.3" stop-color="#B8B7B7"/>
<stop offset="0.7" stop-color="#706E6E"/>
<stop offset="0.8" stop-color="#575454"/>
<stop offset="1"/>
</linearGradient>
<linearGradient id="paint71_linear_29_9469" x1="574.055" y1="120.006" x2="-1041.26" y2="122.699" gradientUnits="userSpaceOnUse">
<stop stop-color="white"/>
<stop offset="0.3" stop-color="#B8B7B7"/>
<stop offset="0.7" stop-color="#706E6E"/>
<stop offset="0.8" stop-color="#575454"/>
<stop offset="1"/>
</linearGradient>
<linearGradient id="paint72_linear_29_9469" x1="574.054" y1="106.471" x2="-1041.26" y2="109.164" gradientUnits="userSpaceOnUse">
<stop stop-color="white"/>
<stop offset="0.3" stop-color="#B8B7B7"/>
<stop offset="0.7" stop-color="#706E6E"/>
<stop offset="0.8" stop-color="#575454"/>
<stop offset="1"/>
</linearGradient>
<linearGradient id="paint73_linear_29_9469" x1="566.809" y1="89.8691" x2="-423.989" y2="76.2153" gradientUnits="userSpaceOnUse">
<stop stop-color="white"/>
<stop offset="0.3" stop-color="#B8B7B7"/>
<stop offset="0.7" stop-color="#706E6E"/>
<stop offset="0.8" stop-color="#575454"/>
<stop offset="1"/>
</linearGradient>
<linearGradient id="paint74_linear_29_9469" x1="-185.124" y1="49.446" x2="990.059" y2="-7.41207" gradientUnits="userSpaceOnUse">
<stop stop-color="white"/>
<stop offset="0.3" stop-color="#B8B7B7"/>
<stop offset="0.7" stop-color="#706E6E"/>
<stop offset="0.8" stop-color="#575454"/>
<stop offset="1"/>
</linearGradient>
<linearGradient id="paint75_linear_29_9469" x1="839.498" y1="68.4846" x2="-290.628" y2="73.8697" gradientUnits="userSpaceOnUse">
<stop stop-color="white"/>
<stop offset="0.3" stop-color="#B8B7B7"/>
<stop offset="0.7" stop-color="#706E6E"/>
<stop offset="0.8" stop-color="#575454"/>
<stop offset="1"/>
</linearGradient>
<linearGradient id="paint76_linear_29_9469" x1="839.497" y1="60.0932" x2="-290.761" y2="65.4783" gradientUnits="userSpaceOnUse">
<stop stop-color="white"/>
<stop offset="0.3" stop-color="#B8B7B7"/>
<stop offset="0.7" stop-color="#706E6E"/>
<stop offset="0.8" stop-color="#575454"/>
<stop offset="1"/>
</linearGradient>
<linearGradient id="paint77_linear_29_9469" x1="839.497" y1="48.8144" x2="-290.76" y2="54.1995" gradientUnits="userSpaceOnUse">
<stop stop-color="white"/>
<stop offset="0.3" stop-color="#B8B7B7"/>
<stop offset="0.7" stop-color="#706E6E"/>
<stop offset="0.8" stop-color="#575454"/>
<stop offset="1"/>
</linearGradient>
</defs>
</svg>
